<svg width="16" height="29" viewBox="0 0 16 29" fill="none" xmlns="http://www.w3.org/2000/svg">
<path d="M15.5607 3.06066C16.1464 2.47487 16.1464 1.52513 15.5607 0.93934C14.9749 0.353553 14.0251 0.353553 13.4393 0.93934L15.5607 3.06066ZM2 14.5L0.93934 13.4393C0.353553 14.0251 0.353553 14.9749 0.93934 15.5607L2 14.5ZM13.4393 28.0607C14.0251 28.6464 14.9749 28.6464 15.5607 28.0607C16.1464 27.4749 16.1464 26.5251 15.5607 25.9393L13.4393 28.0607ZM13.4393 0.93934L7.18934 7.18934L9.31066 9.31066L15.5607 3.06066L13.4393 0.93934ZM7.18934 7.18934L0.93934 13.4393L3.06066 15.5607L9.31066 9.31066L7.18934 7.18934ZM0.93934 15.5607L7.18934 21.8107L9.31066 19.6893L3.06066 13.4393L0.93934 15.5607ZM7.18934 21.8107L13.4393 28.0607L15.5607 25.9393L9.31066 19.6893L7.18934 21.8107Z" fill="white"/>
</svg>
