<svg width="49" height="31" viewBox="0 0 49 31" fill="none" xmlns="http://www.w3.org/2000/svg">
<path d="M2.22678 3.17468C3.51584 3.85542 21.422 13.6323 22.09 13.9845C22.7579 14.3366 23.4376 14.5009 24.4923 14.5009C25.547 14.5009 26.2267 14.3366 26.8946 13.9845C27.5626 13.6323 45.4688 3.85542 46.7578 3.17468C47.2383 2.9282 48.0469 2.48219 48.2227 1.9775C48.5274 1.08549 48.1992 0.745117 46.8985 0.745117H24.4923H2.08616C0.78538 0.745117 0.457256 1.09723 0.761942 1.9775C0.937722 2.49393 1.74631 2.9282 2.22678 3.17468Z" fill="#FE001A"/>
<path d="M47.7771 3.70259C46.8162 4.19555 38.1912 10.3457 32.4842 14.0429L42.117 24.8996C42.3514 25.1343 42.4568 25.416 42.3279 25.5569C42.1873 25.686 41.8826 25.6156 41.6365 25.3926L30.0819 15.6274C28.3358 16.7541 27.1054 17.5288 26.8944 17.6461C25.9921 18.1039 25.3593 18.1626 24.4921 18.1626C23.6249 18.1626 22.9921 18.1039 22.0897 17.6461C21.8671 17.5288 20.6483 16.7541 18.9023 15.6274L7.34762 25.3926C7.11325 25.6273 6.79685 25.6977 6.65622 25.5569C6.5156 25.4278 6.62107 25.1343 6.85544 24.8996L16.4765 14.0429C10.7695 10.3457 2.05077 4.19555 1.08984 3.70259C0.0585934 3.17443 0 3.79649 0 4.27771C0 4.75892 0 28.3386 0 28.3386C0 29.4301 1.60546 30.7916 2.75389 30.7916H24.4921H46.2303C47.3787 30.7916 48.7498 29.4184 48.7498 28.3386C48.7498 28.3386 48.7498 4.74719 48.7498 4.27771C48.7498 3.78475 48.8201 3.17443 47.7771 3.70259Z" fill="#FE001A"/>
</svg>
