<svg width="394" height="213" viewBox="0 0 394 213" fill="none" xmlns="http://www.w3.org/2000/svg">
<path d="M0 208.325C1.62698 207.837 3.09127 207.188 4.71826 207.025C15.2937 205.888 26.0317 204.75 36.6071 203.613C37.2579 203.613 37.9087 203.45 38.5595 203.45C34.3294 198.575 28.6349 197.275 22.4524 197.113C18.873 197.113 15.131 196.463 11.3889 196.138C11.2262 195 11.2262 194.188 11.2262 193.213C10.9008 183.95 10.5754 174.688 10.4127 165.588C10.25 162.338 11.7143 159.575 13.3413 156.975C14.6429 155.025 16.2698 153.238 17.7341 151.125C16.2698 147.712 16.2698 143.975 17.4087 140.4C18.5476 136.338 22.127 135.038 26.3571 135.363C26.3571 134.388 26.5198 133.575 26.5198 132.763C26.6825 124.313 26.8452 115.863 27.1706 107.413C27.3333 101.563 31.4008 96.0375 37.2579 94.9C44.9048 93.275 52.3889 91.4875 60.0357 90.675C65.0794 90.1875 70.2857 90.8375 75.3294 91.325C86.0675 92.625 96.8055 94.0875 107.706 95.55C108.194 95.55 108.683 95.55 109.171 95.55C109.333 94.0875 109.496 92.7875 109.659 91.4875C108.683 91.325 107.869 91 106.73 90.8375C107.056 90.1875 107.218 89.7 107.544 89.2125C110.147 85.15 112.75 80.925 115.516 77.025C116.167 76.2125 117.143 75.4 118.119 74.9125C124.464 72.475 130.81 69.7125 137.317 67.6C143.5 65.65 150.008 64.675 156.516 63.375C158.631 62.8875 160.746 62.5625 163.349 62.075C164.651 55.575 166.115 49.075 167.417 42.4125C168.393 42.0875 169.206 41.7625 170.345 41.4375C164.976 36.4 159.77 31.6875 154.401 26.8125C155.214 23.075 156.028 19.5 156.841 15.7625C175.226 10.4 193.611 5.2 211.996 0C220.619 4.225 229.079 8.6125 237.702 12.8375C237.702 14.625 237.702 16.25 237.702 18.2C238.679 18.0375 239.655 18.0375 240.468 18.0375C241.607 18.0375 242.909 17.3875 243.722 17.875C246.163 19.175 248.278 18.525 250.556 17.875C254.135 16.9 256.413 18.0375 258.365 21.2875C262.595 28.6 266.825 36.075 271.218 43.3875C271.869 44.525 272.845 45.5 273.984 46.15C295.948 58.6625 318.075 71.0125 340.202 83.3625C348.825 88.2375 357.611 93.1125 366.234 97.9875C366.722 98.15 367.048 98.475 367.698 98.9625C368.186 129.025 368.512 159.25 369 189.8C366.56 189.8 364.282 189.8 362.167 189.8C361.353 191.588 360.702 193.05 359.726 194.838C360.54 194.838 361.353 195 362.004 195C371.115 195.488 380.226 195.975 389.175 196.625C390.802 196.788 392.266 197.275 393.893 197.763C393.893 198.088 393.893 198.413 393.893 198.738C392.429 199.225 390.964 199.875 389.5 200.038C382.667 201.013 375.996 201.988 369.163 202.475C349.476 203.938 329.79 205.238 310.103 206.375C288.464 207.512 266.663 208.65 245.024 209.137C196.214 210.275 147.567 211.413 98.7579 212.062C73.8651 212.387 49.1349 211.738 24.2421 211.25C17.5714 211.087 10.9008 210.438 4.23016 209.788C2.92857 209.625 1.46429 209.137 0.162699 208.812C6.18221e-07 208.975 0 208.65 0 208.325ZM184.175 77.1875C184.012 76.5375 183.849 75.725 183.687 75.075C185.639 73.45 188.567 74.2625 190.032 71.9875C187.103 72.6375 184.175 73.2875 180.921 74.1C181.571 75.2375 181.897 76.05 182.222 76.5375C182.222 84.5 182.222 91.975 182.222 99.6125C181.246 100.262 180.433 100.75 179.782 101.237C179.944 101.4 179.944 101.562 180.107 101.725C180.758 101.4 181.571 101.238 182.06 100.913C184.663 99.45 187.103 97.825 189.706 96.525C191.171 95.875 192.635 95.3875 194.262 95.0625C196.214 94.7375 198.329 94.7375 200.444 94.575C203.21 94.25 204.024 93.4375 204.024 90.675C204.024 88.4 204.024 86.125 204.024 83.85C204.024 80.275 204.024 76.7 204.024 72.6375C202.234 72.3125 200.77 71.9875 199.143 71.825C199.143 71.6625 199.306 71.6625 199.306 71.5C198.492 71.0125 197.516 70.525 196.702 70.0375C196.702 70.2 196.54 70.3625 196.54 70.525C196.865 71.0125 197.353 71.6625 197.353 71.6625C196.702 73.2875 195.726 74.425 195.726 75.5625C195.563 80.1125 195.563 84.6625 195.563 89.05C195.563 90.1875 196.052 91.1625 196.377 92.4625C197.679 92.3 198.492 92.1375 199.306 91.975C199.794 89.8625 200.119 87.9125 200.444 85.9625C200.607 85.9625 200.77 85.9625 200.933 85.9625C200.933 88.4 200.933 90.675 200.933 93.275C198.167 93.4375 195.401 93.6 192.635 93.925C192.635 86.6125 192.635 79.4625 192.635 72.475C193.611 71.9875 194.425 71.6625 195.238 71.175C195.075 71.0125 195.075 70.85 194.913 70.525C193.611 70.85 192.472 71.175 191.008 71.5C191.008 78.8125 191.008 85.8 191.008 92.7875C190.845 92.7875 190.845 92.7875 190.683 92.7875C188.405 87.75 186.29 82.55 184.175 77.1875ZM295.46 91.8125C297.413 95.3875 299.202 98.6375 300.504 101.237C304.734 103.188 308.314 104.812 311.893 106.438C311.405 111.963 310.917 117.163 310.429 122.363C310.266 122.525 309.94 122.688 309.778 122.688C308.802 121.713 307.663 120.738 307.012 119.6C289.766 88.2375 272.52 56.7125 255.274 25.35C253.81 22.5875 252.671 22.2625 249.742 23.2375C247.79 24.05 245.837 24.2125 243.722 23.5625C242.421 23.075 240.794 23.2375 239.492 23.4C236.889 23.725 234.448 24.375 231.683 24.8625C231.683 21.775 231.683 19.175 231.683 16.4125C225.663 13 219.643 9.5875 213.623 6.175C212.81 5.6875 211.508 5.85 210.694 6.175C197.19 10.2375 183.687 14.3 170.183 18.3625C166.766 19.3375 163.349 20.475 159.933 21.45C159.607 22.5875 159.282 23.725 158.794 25.025C177.179 19.825 195.075 14.95 212.972 9.9125C215.575 12.5125 218.016 14.95 220.619 17.225C224.524 20.3125 227.127 23.8875 226.314 29.25C226.151 30.0625 226.476 31.0375 226.476 32.0125C226.476 32.5 226.314 32.9875 226.314 33.6375C224.849 32.6625 223.385 31.6875 222.083 30.7125C214.925 34.125 207.929 37.375 200.933 40.4625C199.143 41.275 197.353 41.925 195.563 42.25C188.079 44.0375 180.595 45.6625 172.786 47.45C171.972 52 170.996 56.3875 170.02 61.425C182.548 59.475 194.913 58.5 206.952 62.4C206.952 61.75 207.115 61.2625 207.115 60.775C205.976 51.5125 209.393 44.525 217.202 39.4875L217.365 39.325C220.782 36.4 224.687 37.05 226.964 40.95C228.917 44.2 229.893 47.775 229.405 51.5125C229.242 53.1375 228.591 55.25 227.452 55.9C224.849 57.525 224.524 59.475 224.524 62.075C224.687 71.825 224.687 81.7375 224.687 91.4875C224.687 93.4375 224.687 95.3875 224.687 97.5C225.825 97.3375 226.476 97.175 227.29 97.175C231.032 97.175 234.774 96.0375 238.679 97.6625C275.123 113.262 311.73 128.7 348.337 144.138C352.079 145.763 355.659 147.225 359.238 148.85C360.54 151.938 361.841 154.863 362.98 157.788C363.143 157.788 363.468 157.625 363.631 157.625C363.631 156.975 363.631 156.163 363.631 155.513C363.306 151.288 362.655 147.225 362.655 143C362.329 130.325 362.167 117.813 361.841 105.138C361.841 104.163 361.841 103.188 361.841 102.212C333.206 86.6125 304.897 71.0125 276.425 55.4125C276.425 56.3875 276.75 56.875 276.913 57.525C279.028 61.425 280.98 65.325 283.258 69.225C283.909 70.3625 285.048 71.5 286.349 72.3125C290.254 74.5875 294.321 76.7 298.552 78.8125C298.063 83.0375 297.738 87.2625 297.25 91.4875C296.599 91.8125 296.111 91.8125 295.46 91.8125ZM74.0278 129.675C74.1905 129.675 74.5159 129.513 74.6786 129.513C74.1905 118.95 76.1429 108.225 74.5159 97.3375C75.9802 98.8 77.2817 100.262 79.0714 102.05C102.825 104 127.23 105.95 151.472 107.9C151.635 107.738 151.635 107.575 151.798 107.25C150.984 106.438 150.171 105.3 149.194 104.812C147.567 104 145.778 103.188 143.988 103.025C131.623 101.887 119.095 100.75 106.73 99.6125C94.5278 98.475 82.4881 97.3375 70.2857 96.3625C66.3809 96.0375 62.1508 95.875 58.246 96.3625C52.3889 97.175 46.6944 98.475 41 99.6125C34.9802 100.75 31.7262 104.325 31.5635 110.5C31.4008 116.188 31.4008 121.713 31.2381 127.4C30.9127 137.312 30.5873 147.225 30.4246 157.138C30.2619 161.688 31.5635 162.825 35.9563 162.663C48.1587 162.338 60.3611 162.012 72.5635 161.688C78.746 161.525 84.9286 161.363 91.1111 161.2C91.4365 160.55 91.7619 159.9 92.0873 159.25C94.8532 154.05 98.1071 149.175 102.663 145.438C109.496 139.587 117.143 136.5 126.254 138.125C133.087 139.262 138.619 143.163 143.175 148.2C151.147 156.975 154.726 167.538 156.028 179.075C156.353 181.675 156.516 184.275 156.841 187.038C177.504 188.988 198.004 187.363 218.341 187.038C218.341 185.9 218.341 185.088 218.341 184.113C206.627 184.113 195.075 184.113 183.524 184.113C183.524 177.938 183.524 172.088 183.524 166.075C192.96 166.075 202.071 166.075 211.508 166.075C211.671 165.263 211.671 164.288 211.833 163.312C212.484 163.312 213.135 163.312 213.786 163.312C216.714 162.988 219.155 161.525 219.317 159.088C219.48 154.05 219.317 148.85 219.317 143.488C218.016 143 216.714 142.35 215.413 141.7C215.413 141.538 215.413 141.538 215.413 141.375C217.04 141.212 218.667 141.213 220.456 141.05C220.456 140.238 220.619 139.425 220.619 138.613C220.619 125.288 220.782 112.125 220.782 98.8C220.782 85.6375 220.944 72.475 221.107 59.3125C221.107 58.175 221.433 56.7125 222.246 55.9C224.687 53.1375 225.5 49.075 223.873 45.6625C223.06 43.7125 221.595 43.225 219.968 44.3625C218.341 45.5 216.552 46.9625 215.413 48.5875C212.81 52 212.159 55.9 212.159 60.125C212.484 91.325 212.647 122.362 212.972 153.562C212.972 157.3 211.996 160.225 208.905 162.175C206.79 162.175 204.837 162.175 202.885 162.175C202.397 160.225 202.56 157.95 199.631 157.788C191.333 157.625 183.036 157.463 174.575 157.3C174.087 157.3 173.599 157.463 173.111 157.463C173.437 158.925 173.762 160.062 174.087 161.688C180.27 161.688 186.29 161.688 192.472 161.688C192.472 161.85 192.472 162.012 192.472 162.338C187.591 162.663 182.548 162.825 177.667 163.15C176.04 169.812 174.413 176.312 172.786 182.488C167.417 182.488 162.373 182.488 157.655 182.488C157.329 177.45 157.329 172.738 156.516 168.025C154.401 153.887 147.567 142.838 134.714 135.85C126.254 131.3 117.306 131.138 108.194 132.763C104.452 133.413 100.873 134.875 97.4564 135.85C98.1071 142.35 96.8055 144.625 91.4365 146.413C90.9484 146.575 90.4603 146.738 89.9722 146.738C82.4881 148.2 75.9802 151.125 71.0992 157.138C70.6111 157.625 69.9603 158.113 69.4722 158.6C69.4722 154.05 69.4722 149.825 69.4722 145.275C75.004 145.113 80.373 145.113 85.5794 144.788C88.0198 144.625 90.4603 143.975 92.7381 143.325C94.5278 142.675 95.504 140.887 95.504 138.938C95.504 136.988 94.3651 135.688 92.7381 135.038C91.1111 134.388 89.1587 133.575 87.5318 133.575C81.0238 133.9 74.3532 133.25 67.6825 135.038C68.6587 134.063 69.6349 133.088 70.9365 132.113C70.7738 129.838 70.7738 127.238 70.6111 124.638C70.7738 124.638 70.9365 124.638 71.0992 124.475C72.0754 126.263 73.0516 128.05 74.0278 129.675ZM15.9444 191.913C39.373 192.563 62.3135 193.375 85.254 194.025C85.254 183.95 85.254 174.363 85.254 164.288C61.9881 164.938 38.8849 165.588 15.9444 166.075C15.9444 174.85 15.9444 183.138 15.9444 191.913ZM220.782 162.175C226.151 170.625 227.94 179.238 219.968 187.688C220.456 188.175 220.782 188.663 221.107 189.15C224.361 187.2 226.639 184.763 227.778 181.35C230.381 173.225 228.429 166.075 222.734 159.575C226.476 159.575 229.73 159.575 233.472 159.575C234.937 162.338 236.401 164.938 238.028 167.7C237.865 167.863 237.54 168.188 237.377 168.35C235.587 164.288 232.496 162.988 228.591 163.963C229.567 166.562 230.544 169 231.683 171.763C233.798 171.763 236.075 171.763 238.679 171.763C239.329 178.588 237.377 184.113 232.659 188.825C233.798 188.825 234.774 188.825 235.587 188.338C239.817 185.575 242.258 181.513 242.421 176.475C242.583 173.063 241.933 169.488 241.77 165.75C243.397 167.7 244.861 169.65 246.651 171.763C253.647 171.763 260.968 171.763 268.29 171.763C269.917 178.75 266.663 183.95 261.944 188.663C264.385 189.313 265.849 188.825 267.314 187.2C272.194 181.838 273.008 175.663 270.893 168.838C270.73 168.188 270.567 167.375 270.242 166.562C270.405 166.4 270.73 166.4 270.893 166.238C272.032 167.863 273.008 169.65 274.147 171.275C275.448 171.275 276.913 171.438 278.54 171.438C279.19 178.425 277.401 184.113 271.056 188.013C273.821 188.175 276.262 186.875 277.726 184.275C281.143 178.262 281.468 171.925 278.377 165.75C276.425 161.85 272.845 159.413 268.615 159.413C253.647 158.925 238.679 158.925 223.71 158.6C223.385 158.6 223.06 158.6 223.06 158.6C222.083 160.063 221.595 160.875 220.782 162.175ZM223.548 150.638C226.964 151.125 229.567 151.775 232.171 151.938C246.163 152.425 260.155 152.75 274.31 153.238C277.564 153.4 280.655 153.238 283.909 153.238C284.071 153.075 284.071 152.75 284.234 152.588C283.095 151.938 281.956 150.963 280.655 150.638C263.734 144.625 246.651 138.613 229.567 132.763C228.917 132.6 228.103 132.275 227.29 132.113C226.802 138.288 228.429 144.788 223.548 150.638ZM178.48 114.725C171.81 114.238 165.139 113.263 158.631 115.863C158.631 118.95 158.631 122.038 158.631 124.963C157.329 125.288 156.19 125.613 155.214 125.938C155.214 129.35 155.214 132.6 155.214 135.85C156.516 135.85 157.492 136.013 158.794 136.013C158.794 138.613 158.794 141.05 158.794 143.65C165.952 143.325 172.786 142.513 179.782 144.138C179.782 143.975 179.944 143.812 179.944 143.65C180.107 130.812 180.27 117.813 180.27 104.975C180.27 104 179.294 102.7 178.317 102.375C172.46 100.587 166.603 100.588 160.909 102.538C160.258 102.7 159.282 103.513 159.282 104.163C159.119 106.925 159.282 109.85 159.282 112.775C165.79 112.45 172.46 110.825 178.48 114.725ZM106.73 177.613C106.73 184.275 107.869 188.825 110.798 192.725C116.004 199.875 124.79 201.175 131.135 195.65C140.409 187.688 140.734 171.275 131.786 162.988C126.742 158.275 119.095 158.113 113.889 162.663C108.845 167.05 106.73 172.9 106.73 177.613ZM109.496 209.3C103.964 205.725 100.385 200.85 98.4325 194.675C97.4564 191.263 96.4802 187.85 96.1548 184.438C95.0159 174.688 96.4802 165.263 102.5 157.138C108.194 149.5 115.679 145.438 125.44 147.225C127.881 147.713 130.159 148.525 132.762 149.338C128.206 145.762 123.325 144.463 117.956 144.95C109.008 145.763 102.825 150.963 98.2698 158.275C96.4802 161.2 95.0159 164.288 93.5516 167.375C92.4127 168.188 91.2738 168.838 90.1349 169.488C90.2976 179.075 90.623 188.5 90.7857 198.088C95.3413 204.262 101.524 208.325 109.496 209.3ZM167.417 84.5C156.841 85.475 146.917 86.6125 136.829 87.5875C136.016 91.325 135.202 94.9 134.226 98.6375C143.337 98.3125 151.96 98.15 160.746 97.825C162.698 97.825 164 96.525 164.488 94.575C165.464 91.4875 166.44 88.2375 167.417 84.5ZM113.726 87.1C113.889 87.2625 113.889 87.2625 114.052 87.425C115.028 87.1 116.004 86.775 116.98 86.45C121.048 84.9875 124.952 83.2 129.183 82.225C136.341 80.7625 143.5 79.7875 150.659 78.975C156.19 78.325 161.722 76.375 167.417 77.8375C168.556 78.1625 169.857 78.4875 170.996 78.325C172.135 78.1625 173.274 77.675 174.087 77.025C175.552 75.5625 176.853 73.9375 178.155 72.3125C178.317 72.475 178.48 72.475 178.806 72.6375C178.643 71.9875 178.643 71.3375 178.48 70.525C176.853 69.7125 175.226 68.9 173.599 68.0875C177.667 67.925 181.734 67.6 185.476 68.4125C191.008 69.7125 196.702 68.0875 202.071 69.875C204.187 70.525 205.976 71.175 206.627 73.2875C207.766 73.6125 208.742 73.9375 210.044 74.425C209.067 71.6625 207.115 70.525 204.675 69.7125C195.889 66.7875 186.615 65.975 177.504 66.1375C168.881 66.1375 160.258 67.275 151.635 68.575C146.103 69.3875 140.571 70.85 135.202 72.3125C131.135 73.6125 127.23 75.4 123.325 76.8625C122.349 77.1875 121.21 77.5125 120.722 78.1625C118.282 81.0875 116.004 84.175 113.726 87.1ZM318.889 153.562C311.079 152.75 307.5 154.863 304.571 161.363C304.409 161.688 304.246 162.175 304.083 162.5C300.829 171.275 300.992 180.05 304.083 188.825C304.897 191.263 306.686 193.375 308.313 195.325C310.754 198.25 314.333 197.763 317.587 197.763C313.52 194.838 311.567 190.775 310.429 186.062C309.94 183.95 309.452 181.675 309.29 179.4C308.314 169.488 309.127 160.062 318.889 153.562ZM347.524 196.463C340.202 190.938 338.901 183.138 338.575 175.175C338.25 166.725 340.365 159.25 348.337 154.538C342.806 153.238 338.25 155.025 335.484 159.738C330.278 168.675 330.278 178.262 333.694 187.688C336.298 194.837 339.714 196.625 347.524 196.463ZM305.385 197.113C298.226 191.263 297.25 183.3 297.087 175.175C296.762 166.888 298.714 159.25 306.686 154.213C299.365 153.4 295.46 155.675 292.694 162.338C289.115 171.275 289.278 180.538 292.857 189.312C295.135 195.325 298.064 197.763 305.385 197.113ZM196.865 197.438C195.889 195.812 195.238 194.35 194.262 192.562C182.385 192.562 170.345 192.562 157.98 192.562C157.98 194.675 157.98 196.625 157.98 198.9C170.996 198.575 183.849 198.087 196.865 197.438ZM160.258 154.375C177.341 154.863 193.937 155.188 210.694 155.675C210.532 154.05 210.369 152.913 210.369 151.45C195.238 150.963 180.433 150.637 165.627 150.15C163.675 151.613 162.048 152.913 160.258 154.375ZM314.984 175.5C315.147 179.4 315.798 183.138 317.913 186.388C320.679 190.613 325.234 190.45 327.349 186.062C328.488 183.462 329.302 180.538 329.627 177.613C329.952 173.062 328.976 168.675 325.885 165.263C323.282 162.338 319.865 162.663 317.75 165.913C315.472 168.675 315.147 172.087 314.984 175.5ZM357.123 176.475C356.635 172.738 356.147 169.163 354.032 166.075C353.218 164.613 352.079 163.475 350.29 163.475C348.337 163.475 347.198 164.938 346.71 166.562C345.897 169.163 345.083 171.925 344.921 174.688C344.595 178.425 345.409 182.163 347.198 185.413C348.012 186.875 349.151 188.175 351.103 188.175C353.056 188.175 354.194 186.875 354.683 185.413C355.659 182.488 356.31 179.4 357.123 176.475ZM179.456 76.7C179.131 76.7 178.806 76.5375 178.48 76.5375C177.829 77.5125 177.016 78.325 176.69 79.4625C175.389 84.9875 174.087 90.675 172.786 96.3625C172.46 97.9875 173.111 98.8 174.575 99.45C177.179 100.425 178.48 98.475 180.107 97.175C180.107 91.4875 180.107 85.9625 180.107 80.275C180.27 78.975 179.782 77.8375 179.456 76.7ZM133.087 87.9125C129.345 88.5625 125.929 89.2125 122.512 89.8625C121.861 92.625 121.373 95.3875 120.722 98.15C124.139 98.15 127.23 98.15 130.647 98.15C131.46 94.9 132.274 91.65 133.087 87.9125ZM182.06 143.975C182.06 144.138 182.222 144.462 182.222 144.625C182.548 144.788 182.71 144.788 183.036 144.95C189.381 145.113 195.726 145.438 202.071 145.6C204.024 145.6 205.488 144.463 206.139 142.838C206.79 141.375 207.115 139.588 207.115 137.963C207.115 128.538 207.115 119.275 206.952 109.85C206.952 108.713 206.627 107.413 206.464 106.275C205.976 106.6 205.976 106.763 205.976 107.088C205.976 116.35 206.139 125.613 206.139 135.038C206.139 136.663 206.139 138.45 205.976 140.075C205.651 143.163 204.187 144.3 201.258 144.138C195.563 143.975 190.032 143.812 184.337 143.65C183.361 143.65 182.71 143.975 182.06 143.975ZM220.619 182.325C216.226 177.613 214.762 172.25 214.111 166.4C211.183 170.625 211.345 178.263 214.274 182.325C216.064 182.325 218.016 182.325 220.619 182.325ZM27.496 162.825C27.496 162.663 27.6587 162.5 27.6587 162.338C26.3571 161.525 25.2183 160.713 23.754 159.9C23.2659 160.387 22.4524 160.875 21.8016 161.363C21.6389 161.2 21.4762 161.038 21.3135 160.875C22.7778 158.6 24.4048 156.163 25.869 153.888C25.0556 153.4 24.4048 153.075 23.4286 152.588C20.5 155.512 17.5714 158.6 16.4325 162.988C20.3373 162.825 23.9167 162.825 27.496 162.825ZM196.052 99.125C195.889 101.725 196.702 103.35 198.655 104C200.607 104.65 202.885 103.837 203.861 102.212C205.163 100.1 204.837 97.825 203.21 96.2C201.583 96.525 200.119 97.0125 198.655 97.3375C198.98 97.9875 199.143 98.6375 199.631 99.6125C198.329 99.45 197.353 99.2875 196.052 99.125ZM24.8929 147.875C26.0317 146.087 27.0079 144.625 28.1468 142.675C26.1944 142.675 24.8929 142.675 23.4286 142.675C23.4286 142.513 23.2659 142.188 23.2659 142.025C24.7302 141.7 26.1944 141.375 27.8214 141.05C26.8452 140.075 23.754 140.075 22.7778 141.05C22.4524 141.375 21.9643 142.025 21.9643 142.513C21.8016 144.463 21.8016 146.25 21.9643 148.2C22.127 149.013 22.9405 149.988 23.754 150.15C24.8929 150.475 26.1944 150.15 27.3333 149.988C27.3333 149.663 27.3333 149.5 27.1706 149.175C26.3571 149.175 25.381 149.175 24.5675 149.175C23.2659 149.013 22.2897 147.875 23.1032 147.062C23.5913 147.062 24.0794 147.387 24.8929 147.875ZM85.5794 200.525C85.7421 200.2 85.7421 200.038 85.9048 199.713C85.254 199.387 84.6032 199.062 83.7897 198.9C80.6984 198.738 77.4444 198.9 74.3532 198.413C71.75 198.088 70.123 199.387 68.1706 201.5C74.1905 201.175 79.8849 200.85 85.5794 200.525ZM178.48 145.6C172.46 145.113 166.44 144.3 160.095 145.763C160.746 146.25 160.909 146.413 161.071 146.413C166.44 146.413 171.81 146.575 177.016 146.413C177.667 146.413 178.155 145.925 178.48 145.6ZM336.135 154.538C333.044 154.863 330.115 154.375 327.349 156C328.325 157.462 329.302 158.6 330.115 159.738C332.067 158.113 333.857 156.488 336.135 154.538ZM185.964 101.4C188.73 101.725 191.008 101.887 193.286 102.05C193.286 100.912 193.286 99.9375 193.286 99.125C190.357 97.6625 188.405 99.6125 185.964 101.4ZM292.369 86.2875C292.532 86.2875 292.694 86.2875 292.857 86.2875C293.02 84.6625 293.183 82.875 293.345 81.0875C291.718 80.275 290.254 79.625 288.952 78.8125C288.79 78.975 288.79 79.1375 288.627 79.3C289.929 81.575 291.067 83.85 292.369 86.2875ZM201.421 138.288C201.421 136.825 201.421 135.688 201.421 134.388C200.282 134.225 199.306 134.062 198.004 133.9C198.004 135.363 198.167 136.5 198.167 137.638C199.143 137.8 199.956 137.963 201.421 138.288ZM186.29 77.1875C187.266 79.7875 188.079 82.0625 188.893 84.3375C189.056 84.3375 189.218 84.3375 189.381 84.175C189.218 81.9 189.218 79.625 189.056 77.35C188.079 77.35 187.429 77.35 186.29 77.1875Z" fill="#222222"/>
<path d="M295.46 91.8126C296.274 91.8126 296.762 91.8126 297.413 91.8126C297.901 87.5876 298.226 83.3626 298.714 79.1376C294.484 76.8626 290.417 74.9126 286.512 72.6376C285.373 71.9876 284.234 70.8501 283.421 69.5501C281.143 65.6501 279.19 61.7501 277.075 57.8501C276.75 57.2001 276.425 56.7126 276.587 55.7376C305.059 71.3376 333.369 86.9376 362.004 102.538C362.004 103.513 362.004 104.488 362.004 105.463C362.329 118.138 362.492 130.65 362.817 143.325C362.98 147.55 363.468 151.613 363.794 155.838C363.794 156.488 363.794 157.3 363.794 157.95C363.631 157.95 363.306 158.113 363.143 158.113C361.841 155.188 360.702 152.425 359.401 149.175C355.821 147.713 352.242 146.088 348.5 144.463C311.893 129.025 275.448 113.588 238.841 97.9876C234.936 96.3626 231.194 97.5001 227.452 97.5001C226.802 97.5001 226.151 97.6626 224.849 97.8251C224.849 95.7126 224.849 93.7626 224.849 91.8126C224.849 82.0626 224.686 72.1501 224.686 62.4001C224.686 59.8001 225.012 57.6876 227.615 56.2251C228.754 55.5751 229.405 53.3001 229.567 51.8376C230.056 48.1001 229.079 44.5251 227.127 41.2751C224.849 37.3751 220.944 36.8876 217.528 39.6501L217.365 39.8126C209.718 44.8501 206.139 51.8376 207.278 61.1001C207.278 61.4251 207.278 61.9126 207.115 62.7251C194.913 58.8251 182.71 59.8001 170.182 61.7501C171.159 56.8751 171.972 52.3251 172.948 47.7751C180.758 45.9876 188.242 44.3626 195.726 42.5751C197.516 42.0876 199.306 41.4376 201.095 40.7876C208.091 37.5376 215.087 34.2876 222.246 31.0376C223.548 32.0126 225.012 32.8251 226.476 33.9626C226.476 33.4751 226.639 32.9876 226.639 32.3376C226.639 31.3626 226.313 30.5501 226.476 29.5751C227.127 24.2126 224.686 20.6376 220.782 17.5501C218.179 15.4376 215.738 12.8376 213.135 10.2376C195.238 15.2751 177.341 20.1501 158.956 25.3501C159.444 24.0501 159.607 22.9126 160.095 21.7751C163.512 20.8001 166.929 19.6626 170.345 18.6876C183.849 14.6251 197.353 10.5626 210.857 6.5001C211.833 6.1751 213.135 6.1751 213.786 6.5001C219.806 9.7501 225.663 13.1626 231.845 16.7376C231.845 19.5001 231.845 22.1001 231.845 25.1876C234.611 24.7001 237.214 24.0501 239.655 23.7251C241.119 23.5626 242.583 23.5626 243.885 23.8876C246 24.5376 247.79 24.2126 249.905 23.5626C252.833 22.4251 253.972 22.9126 255.436 25.6751C272.682 57.2001 289.929 88.5626 307.175 119.925C307.825 121.063 308.964 122.038 309.94 123.013C310.103 122.85 310.429 122.688 310.591 122.688C311.079 117.488 311.567 112.288 312.056 106.763C308.476 105.138 304.897 103.513 300.667 101.563C299.04 98.6376 297.25 95.3876 295.46 91.8126ZM305.873 123.013C306.036 122.85 306.036 122.85 306.198 122.688C298.877 108.875 291.393 95.0626 284.071 81.2501C283.909 81.2501 283.746 81.4126 283.583 81.4126C284.559 83.8501 285.536 86.1251 286.512 88.5626C286.349 88.5626 286.349 88.7251 286.186 88.7251C275.286 68.4126 264.385 48.1001 253.321 27.6251C253.972 27.4626 254.298 27.4626 254.786 27.3001C254.786 27.1376 254.948 26.9751 254.948 26.8126C254.135 26.3251 252.996 25.3501 252.345 25.5126C249.579 26.3251 247.139 27.4626 244.536 28.4376C244.536 28.6001 244.698 28.9251 244.698 29.0876C246.976 29.7376 249.091 30.2251 251.532 31.0376C250.881 34.6126 250.23 37.8626 249.579 41.2751C250.067 41.6001 250.393 41.9251 250.881 42.0876C259.016 44.6876 263.571 50.7001 266.5 58.3376C266.5 58.5001 266.663 58.6626 266.663 58.6626C267.476 60.1251 268.29 61.7501 269.266 63.5376C267.802 62.8876 266.988 62.5626 265.686 62.0751C265.524 63.7001 265.361 65.1626 265.198 66.3001C268.29 68.2501 271.381 69.7126 273.659 71.8251C276.425 74.2626 275.936 78.0001 275.286 81.5751C276.913 82.2251 278.377 82.8751 280.167 83.5251C280.98 84.8251 281.794 86.6126 282.77 88.4001C283.746 90.1876 284.559 91.9751 285.698 94.0876C284.722 93.7626 284.071 93.6001 283.095 93.2751C282.932 95.2251 282.77 97.0126 282.607 98.8001C284.722 99.7751 286.512 100.588 288.302 101.4C290.905 102.538 291.881 104.163 291.556 107.088C291.393 109.525 290.905 111.8 290.742 114.238C292.044 114.725 293.345 115.375 294.809 115.863C294.972 114.4 295.135 113.263 295.298 112.125C297.738 116.838 300.667 121.063 305.385 124.313C304.571 122.688 304.083 121.713 303.595 120.575L303.758 120.413C304.571 121.388 305.222 122.2 305.873 123.013ZM235.425 77.6751C237.214 60.9376 239.167 44.0376 240.956 26.9751C237.865 27.6251 235.099 28.2751 232.333 28.9251C231.52 33.3126 230.869 37.5376 230.056 41.7626C230.218 41.7626 230.381 41.9251 230.544 41.9251C231.683 39.3251 232.821 36.5626 234.123 33.9626C236.238 48.4251 235.75 63.0501 235.425 77.6751ZM257.063 99.1251C257.714 92.9501 258.365 87.2626 259.016 81.4126C253.484 78.8126 247.952 76.2126 242.095 73.4501C241.77 76.0501 241.607 78.3251 241.444 80.6001C245.675 82.5501 249.742 84.3376 253.972 86.2876C253.647 90.0251 253.321 93.7626 252.996 97.5001C254.298 97.8251 255.436 98.3126 257.063 99.1251ZM276.587 107.738C277.238 101.725 277.889 96.3626 278.54 90.6751C273.333 88.2376 268.29 85.8001 263.083 83.2001C262.758 85.4751 262.595 87.5876 262.27 89.5376C266.337 91.3251 270.079 93.1126 274.147 94.9001C273.821 98.8001 273.496 102.375 273.171 106.113C274.147 106.763 275.123 107.088 276.587 107.738ZM256.413 62.0751C256.087 65.3251 255.762 68.4126 255.599 71.6626C257.063 72.3126 258.365 72.9626 259.992 73.7751C260.48 68.7376 261.131 64.1876 261.619 59.6376C255.925 56.7126 250.393 53.7876 244.536 50.5376C244.373 52.4876 244.21 53.9501 244.048 55.5751C248.115 57.8501 252.182 59.8001 256.413 62.0751ZM326.048 129.838C326.373 124.313 326.861 119.275 327.186 113.913C323.607 112.288 320.19 110.663 316.448 108.875C316.286 110.663 316.286 112.125 316.123 113.588C318.563 114.725 320.841 115.863 323.119 116.838C322.794 120.738 322.468 124.313 322.143 128.213C323.444 128.7 324.583 129.188 326.048 129.838ZM356.309 143.325C356.309 137.963 356.309 132.925 356.309 127.725C352.73 126.1 349.151 124.313 345.246 122.363C345.246 123.988 345.246 125.125 345.246 126.425C347.686 127.563 350.127 128.7 352.567 129.675C352.567 133.575 352.567 137.475 352.567 141.213C353.706 142.025 354.845 142.675 356.309 143.325ZM337.762 135.038C338.575 135.363 339.389 135.688 340.528 136.175C340.853 130.813 341.179 125.775 341.504 120.738C337.925 119.113 334.508 117.488 330.766 115.863C330.766 117.488 330.766 118.625 330.766 119.925C333.044 121.063 335.484 122.2 337.762 123.175C337.762 127.238 337.762 130.975 337.762 135.038ZM313.357 86.9376C309.94 85.1501 306.686 83.5251 303.107 81.5751C302.944 83.2001 302.944 84.5001 302.782 85.8001C305.059 87.1001 307.175 88.2376 309.452 89.3751C309.29 92.3001 308.964 95.0626 308.802 97.8251C309.94 98.3126 310.917 98.8001 312.218 99.4501C312.706 95.2251 313.032 91.1626 313.357 86.9376ZM342.643 102.375C339.063 100.425 335.647 98.6376 331.905 96.6876C331.905 98.3126 331.905 99.4501 331.905 100.75C334.182 101.888 336.298 103.188 338.575 104.325C338.575 107.25 338.575 109.85 338.575 112.613C339.552 113.1 340.528 113.588 341.992 114.238C342.155 110.013 342.48 106.275 342.643 102.375ZM327.675 107.088C328 102.863 328.325 98.9626 328.651 94.9001C325.234 93.1126 321.817 91.3251 318.075 89.3751C318.075 91.1626 318.075 92.3001 318.075 93.6001C320.353 94.9001 322.794 96.0376 325.071 97.3376C324.746 100.1 324.583 102.863 324.258 105.625C325.397 106.113 326.373 106.6 327.675 107.088ZM356.798 121.713C356.798 117.488 356.798 113.75 356.798 109.85C353.381 108.063 349.964 106.275 346.059 104.325C345.897 105.788 345.897 106.925 345.897 108.063C348.5 109.363 350.94 110.825 353.381 111.963C353.381 114.725 353.381 117.325 353.381 119.925C354.357 120.413 355.333 120.9 356.798 121.713Z" fill="white"/>
<path d="M74.0277 129.675C73.0516 127.887 72.2381 126.262 71.2619 124.475C71.0992 124.475 70.9365 124.475 70.7738 124.637C70.9365 127.237 71.0992 129.837 71.0992 132.112C69.9603 133.25 68.8214 134.225 67.8452 135.037C74.5158 133.412 81.1865 133.9 87.6944 133.575C89.4841 133.575 91.2738 134.387 92.9008 135.037C94.5277 135.687 95.6666 136.987 95.6666 138.937C95.6666 140.887 94.8531 142.675 92.9008 143.325C90.623 144.137 88.1825 144.625 85.742 144.787C80.5357 145.112 75.1666 145.112 69.6349 145.275C69.6349 149.662 69.6349 154.05 69.6349 158.6C70.2857 158.112 70.7738 157.787 71.2619 157.137C76.1428 151.125 82.6508 148.2 90.1349 146.737C90.623 146.575 91.1111 146.412 91.5992 146.412C96.9682 144.625 98.2698 142.35 97.619 135.85C101.198 134.875 104.778 133.412 108.357 132.762C117.468 131.137 126.417 131.3 134.877 135.85C147.73 142.837 154.563 153.887 156.679 168.025C157.329 172.737 157.492 177.612 157.817 182.487C162.698 182.487 167.742 182.487 172.948 182.487C174.575 176.15 176.04 169.812 177.829 163.15C182.71 162.825 187.754 162.662 192.635 162.337C192.635 162.175 192.635 162.012 192.635 161.687C186.452 161.687 180.432 161.687 174.25 161.687C173.925 160.062 173.599 158.762 173.274 157.462C173.762 157.462 174.25 157.3 174.738 157.3C183.036 157.462 191.333 157.625 199.794 157.787C202.559 157.787 202.559 160.062 203.048 162.175C205 162.175 206.952 162.175 209.067 162.175C212.159 160.225 213.135 157.3 213.135 153.562C212.809 122.362 212.647 91.3249 212.321 60.1249C212.321 55.8999 212.972 51.8374 215.575 48.5874C216.877 46.9624 218.504 45.4999 220.131 44.3624C221.758 43.2249 223.222 43.7124 224.036 45.6624C225.5 48.9124 224.686 52.9749 222.409 55.8999C221.758 56.7124 221.27 58.1749 221.27 59.3124C221.107 72.4749 221.107 85.6374 220.944 98.7999C220.944 112.125 220.782 125.287 220.782 138.612C220.782 139.425 220.782 140.075 220.619 141.05C218.829 141.212 217.202 141.212 215.575 141.375C215.575 141.537 215.575 141.537 215.575 141.7C216.877 142.35 218.341 142.837 219.48 143.487C219.48 148.85 219.643 154.05 219.48 159.087C219.317 161.525 216.877 163.15 213.948 163.312C213.298 163.312 212.647 163.312 211.996 163.312C211.833 164.287 211.833 165.262 211.671 166.075C202.397 166.075 193.123 166.075 183.686 166.075C183.686 172.087 183.686 177.937 183.686 184.112C195.401 184.112 206.952 184.112 218.504 184.112C218.504 185.087 218.504 185.9 218.504 187.037C198.167 187.362 177.667 188.987 157.004 187.037C156.679 184.437 156.516 181.675 156.19 179.075C154.889 167.537 151.309 156.975 143.337 148.2C138.782 143.162 133.25 139.262 126.417 138.125C117.306 136.5 109.659 139.587 102.825 145.437C98.2698 149.337 95.0158 154.05 92.25 159.25C91.9246 159.9 91.5992 160.55 91.2738 161.2C85.0912 161.362 78.9087 161.525 72.7262 161.687C60.5238 162.012 48.3214 162.337 36.119 162.662C31.7262 162.825 30.4246 161.687 30.5873 157.137C30.9127 147.225 31.2381 137.312 31.4008 127.4C31.5635 121.712 31.5635 116.187 31.7262 110.5C31.8889 104.325 34.9801 100.75 41.1627 99.6124C46.8571 98.4749 52.5515 97.1749 58.4087 96.3624C62.3135 95.8749 66.3809 96.0374 70.4484 96.3624C82.6508 97.3374 94.6904 98.4749 106.893 99.6124C119.258 100.75 131.786 101.887 144.151 103.025C145.94 103.187 147.73 104 149.357 104.812C150.333 105.3 151.147 106.437 151.96 107.25C151.798 107.412 151.798 107.575 151.635 107.9C127.23 105.95 102.988 104 79.2341 102.05C77.6071 100.262 76.1428 98.7999 74.6785 97.3374C76.4682 108.387 74.3531 118.95 74.8412 129.512C74.3531 129.675 74.1904 129.675 74.0277 129.675ZM96.4801 147.55C95.8293 147.875 95.3412 148.2 94.6904 148.525C90.2976 151.287 86.0674 154.212 81.6746 156.975C80.5357 157.787 79.0714 158.112 77.7698 158.762C77.7698 158.925 77.7698 158.925 77.7698 159.087C81.5119 159.087 85.2539 159.087 88.8333 159.087C91.4365 155.187 94.0396 151.287 96.4801 147.55C102.175 140.725 108.845 135.2 118.119 134.062C111.611 133.575 105.917 135.525 101.036 137.8C99.8968 140.562 98.9206 142.512 98.1071 144.462C97.619 145.6 97.1309 146.575 96.4801 147.55ZM34.492 114.725C34.1666 125.937 34.0039 136.825 33.6785 147.875C33.6785 150.475 33.6785 153.075 33.3531 155.675C33.0277 158.437 33.8412 159.412 36.6071 159.412C42.9523 159.087 49.2976 158.762 55.6428 158.6C60.6865 158.437 61.9881 157.3 61.9881 152.1C61.9881 140.725 62.1508 129.187 62.1508 117.812C62.1508 114.887 62.3135 111.962 62.1508 109.2C62.1508 106.112 61.1746 105.3 58.0833 105.625C57.1071 105.787 55.9682 105.95 54.992 106.112C49.1349 107.087 43.2777 108.062 37.4206 109.2C34.9801 109.687 32.7023 112.45 33.1904 114.562C33.6785 114.562 34.0039 114.562 34.492 114.725ZM218.341 99.7749C218.179 99.7749 217.853 99.7749 217.69 99.7749C217.69 100.587 217.69 101.237 217.69 102.05C217.69 112.612 217.528 123.337 217.365 133.9C217.365 135.85 216.877 137.637 216.552 139.587C217.365 139.587 218.504 139.587 220.131 139.587C219.155 126.262 221.595 112.937 218.341 99.7749ZM73.5396 109.525C73.7023 109.525 74.0277 109.362 74.1904 109.362C74.1904 107.412 74.0277 105.3 74.1904 103.35C74.5158 98.4749 72.2381 96.1999 66.5436 96.8499C69.7976 101.075 67.3571 106.112 68.6587 111.312C69.6349 109.037 70.2857 107.25 71.0992 105.137C71.9127 106.762 72.7262 108.225 73.5396 109.525ZM78.0952 139.262C80.2103 136.825 81.8373 136.5 83.7896 138.287C82.1627 140.075 81.1865 142.512 78.4206 142.837C79.3968 144.3 82.1627 144.625 85.742 143.65C85.742 141.05 85.742 138.287 85.742 135.525C83.1389 135.687 80.8611 135.687 78.4206 135.85C78.2579 137.15 78.0952 138.287 78.0952 139.262ZM218.179 78.3249C218.504 78.3249 218.667 78.3249 218.992 78.3249C219.317 75.2374 219.806 72.3124 220.131 69.2249C220.619 63.8624 219.317 58.3374 221.758 53.2999C219.155 54.9249 218.341 57.5249 218.341 60.2874C218.179 65.8124 218.179 71.3374 218.179 76.6999C218.016 77.3499 218.179 77.8374 218.179 78.3249ZM216.063 149.175C215.087 154.05 217.69 159.412 211.508 162.012C215.575 163.15 218.016 161.525 218.341 157.787C218.504 154.7 218.667 151.45 218.667 148.362C218.667 147.875 218.504 147.387 218.504 146.9C218.341 146.9 218.179 146.9 218.179 146.9C217.853 148.2 217.528 149.5 217.202 151.125C216.714 150.312 216.552 149.987 216.063 149.175ZM77.2817 143.812C77.2817 141.212 77.2817 138.612 77.2817 135.85C74.8412 136.012 72.5635 136.175 70.123 136.337C70.123 137.15 69.9603 137.962 69.9603 138.937C72.5635 136.662 74.6785 136.5 76.3055 138.45C74.8412 139.912 73.5396 141.375 72.0754 142.837C71.0992 142.837 70.4484 142.837 69.7976 142.837C71.0992 144.137 72.7262 144.3 77.2817 143.812ZM90.2976 143.487C93.2262 142.187 94.6904 140.075 94.0396 138.125C93.3889 136.012 90.9484 134.712 88.5079 135.037C88.5079 136.337 88.5079 137.637 88.5079 138.937C88.5079 139.75 88.5079 140.562 88.5079 141.375C88.6706 141.375 88.6706 141.375 88.8333 141.537C89.3214 140.562 89.8095 139.75 90.2976 138.775C91.7619 140.725 91.7619 140.725 90.2976 143.487ZM59.5476 161.2C59.7103 161.362 59.7103 161.687 59.873 161.85C61.5 161.362 63.4523 161.2 64.9166 160.225C66.2182 159.412 66.0555 155.837 65.242 154.05C64.5912 157.462 62.6389 159.9 59.5476 161.2Z" fill="white"/>
<path d="M15.9443 191.912C15.9443 183.137 15.9443 174.85 15.9443 166.237C38.8848 165.587 61.988 165.1 85.2539 164.45C85.2539 174.362 85.2539 184.112 85.2539 194.187C62.3134 193.375 39.3729 192.562 15.9443 191.912ZM81.5118 181.35C78.4205 184.6 74.6785 185.25 70.7737 185.25C57.2697 185.25 43.7658 185.25 30.4245 185.25C25.5435 185.25 21.1507 184.762 18.3848 179.562C18.3848 183.137 18.3848 186.062 18.3848 189.312C39.5356 189.8 60.5237 190.125 81.6745 190.612C81.5118 187.362 81.5118 184.437 81.5118 181.35Z" fill="white"/>
<path d="M220.782 162.175C221.595 161.038 222.083 160.063 222.897 158.925C222.897 158.925 223.222 158.925 223.548 158.925C238.516 159.088 253.484 159.25 268.452 159.738C272.845 159.9 276.262 162.175 278.214 166.075C281.468 172.25 280.98 178.588 277.564 184.6C276.099 187.2 273.659 188.5 270.893 188.338C277.238 184.438 279.028 178.75 278.377 171.763C276.75 171.6 275.286 171.6 273.984 171.6C272.845 169.813 271.706 168.188 270.73 166.563C270.568 166.725 270.242 166.725 270.079 166.888C270.242 167.7 270.405 168.35 270.73 169.163C272.683 175.825 272.032 182 267.151 187.525C265.687 188.988 264.222 189.475 261.782 188.988C266.663 184.275 269.754 179.075 268.127 172.088C260.806 172.088 253.484 172.088 246.488 172.088C244.699 169.975 243.234 168.025 241.607 166.075C241.933 169.813 242.421 173.388 242.258 176.8C242.095 181.838 239.655 185.738 235.425 188.663C234.611 189.15 233.635 189.15 232.496 189.15C237.377 184.438 239.329 178.75 238.516 172.088C236.076 172.088 233.635 172.088 231.52 172.088C230.381 169.325 229.405 166.888 228.429 164.288C232.333 163.475 235.262 164.775 237.214 168.675C237.377 168.513 237.702 168.188 237.865 168.025C236.401 165.263 234.774 162.5 233.31 159.9C229.568 159.9 226.314 159.9 222.572 159.9C228.266 166.4 230.218 173.55 227.615 181.675C226.476 185.088 224.199 187.688 220.945 189.475C220.456 188.988 220.131 188.5 219.806 188.013C227.941 179.238 226.314 170.625 220.782 162.175ZM240.143 163.638C240.143 163.963 240.143 164.125 240.143 164.45C245.349 164.45 250.718 164.613 255.925 164.45C260.643 164.288 264.548 164.775 266.825 169.488C266.825 169.488 266.988 169.488 267.314 169.488C266.5 166.075 264.71 163.15 261.945 160.225C253.484 160.225 244.699 160.225 236.076 160.225C237.54 161.363 238.841 162.5 240.143 163.638ZM277.726 168.838C276.262 162.663 270.893 159.413 266.663 160.55C267.476 161.525 268.615 162.825 269.754 164.288C269.591 164.45 269.429 164.613 269.429 164.775C271.056 164.775 272.683 164.938 274.147 164.938C275.123 166.075 276.262 167.213 277.726 168.838Z" fill="white"/>
<path d="M223.548 150.637C228.429 144.625 226.802 138.287 227.29 131.95C228.103 132.112 228.754 132.437 229.567 132.6C246.651 138.612 263.571 144.462 280.655 150.475C281.956 150.962 283.095 151.775 284.234 152.425C284.071 152.587 284.071 152.912 283.909 153.075C280.655 153.075 277.563 153.075 274.31 153.075C260.317 152.75 246.325 152.262 232.171 151.775C229.567 151.937 226.964 151.287 223.548 150.637Z" fill="white"/>
<path d="M178.48 114.725C172.298 110.825 165.627 112.45 158.794 112.775C158.794 109.85 158.631 106.925 158.794 104.162C158.794 103.512 159.77 102.7 160.421 102.537C166.278 100.587 172.135 100.587 177.829 102.375C178.643 102.7 179.782 104 179.782 104.975C179.782 117.812 179.619 130.812 179.456 143.65C179.456 143.812 179.294 143.975 179.294 144.137C172.46 142.512 165.464 143.487 158.305 143.65C158.305 141.05 158.305 138.612 158.305 136.012C157.004 136.012 156.028 135.85 154.726 135.85C154.726 132.6 154.726 129.35 154.726 125.937C155.702 125.612 156.841 125.45 158.143 124.962C158.143 122.037 158.143 118.95 158.143 115.862C165.301 113.262 171.809 114.4 178.48 114.725ZM173.762 115.375C173.762 124.637 173.762 133.412 173.762 142.512C175.389 142.675 176.853 142.675 178.643 142.837C178.643 133.9 178.643 125.125 178.643 116.35C177.016 116.025 175.714 115.7 173.762 115.375ZM160.095 116.187C160.095 125.125 160.095 133.737 160.095 142.837C161.559 142.512 162.698 142.35 163.512 142.35C163.186 141.05 162.698 140.237 162.698 139.262C162.536 132.275 162.536 125.125 162.373 118.137C162.373 117.487 162.21 116.675 162.21 115.7C161.234 116.025 160.583 116.187 160.095 116.187ZM174.087 111.637C175.551 112.287 177.016 112.775 178.643 113.425C178.643 110.175 178.643 106.925 178.643 103.187C176.69 102.862 174.901 102.537 173.436 102.212C173.762 105.625 173.924 108.712 174.087 111.637ZM160.095 103.512C160.095 106.437 160.095 109.2 160.095 111.962C160.746 111.8 161.397 111.8 162.21 111.637C162.21 109.2 162.21 106.762 162.21 104.487C163.186 103.837 164.163 103.187 164.976 102.7C164.976 102.537 164.813 102.375 164.813 102.375C163.349 102.537 161.885 103.025 160.095 103.512Z" fill="white"/>
<path d="M106.73 177.612C106.73 172.9 108.845 167.05 113.889 162.662C119.095 158.112 126.742 158.275 131.786 162.987C140.734 171.275 140.409 187.687 131.135 195.65C124.79 201.012 116.004 199.712 110.798 192.725C107.869 188.825 106.73 184.275 106.73 177.612ZM131.786 170.3C126.091 165.425 120.56 167.537 117.794 171.275C114.54 175.5 113.889 180.212 115.679 185.25C117.306 189.8 121.048 192.562 125.115 192.562C129.183 192.562 133.087 189.312 134.552 184.925C136.016 180.375 135.691 175.987 133.087 171.762C133.575 171.275 134.064 170.95 134.877 170.3C134.389 169.65 133.901 169.162 133.25 168.512C132.599 169.162 132.111 169.65 131.786 170.3Z" fill="white"/>
<path d="M109.496 209.3C101.524 208.325 95.3412 204.425 90.623 198.088C90.4603 188.5 90.1349 179.075 89.9722 169.488C91.1111 168.838 92.25 168.025 93.3888 167.375C94.8531 164.45 96.3174 161.2 98.1071 158.275C102.663 150.8 108.845 145.6 117.794 144.95C123.163 144.463 128.206 145.763 132.599 149.338C129.996 148.525 127.718 147.55 125.278 147.225C115.516 145.438 108.032 149.663 102.337 157.138C96.3174 165.263 94.8531 174.688 95.992 184.438C96.3174 187.85 97.2936 191.425 98.2698 194.675C100.385 200.85 103.964 205.725 109.496 209.3Z" fill="white"/>
<path d="M167.417 84.5C166.278 88.2375 165.464 91.4875 164.488 94.7375C164 96.6875 162.536 97.825 160.746 97.9875C152.123 98.3125 143.5 98.475 134.226 98.8C135.04 95.0625 135.853 91.4875 136.829 87.75C146.917 86.6125 156.841 85.6375 167.417 84.5Z" fill="white"/>
<path d="M113.726 87.0999C116.004 84.0124 118.282 81.0874 120.559 78.1624C121.047 77.5124 122.186 77.1874 123.163 76.8624C127.067 75.3999 130.972 73.6124 135.04 72.3124C140.409 70.8499 145.94 69.3874 151.472 68.5749C160.095 67.4374 168.718 66.2999 177.341 66.1374C186.452 65.9749 195.726 66.7874 204.512 69.7124C206.79 70.5249 208.742 71.6624 209.881 74.4249C208.579 73.9374 207.603 73.6124 206.464 73.2874C205.651 71.1749 203.861 70.5249 201.909 69.8749C196.54 68.0874 190.845 69.7124 185.313 68.4124C181.571 67.4374 177.504 67.7624 173.436 68.0874C175.063 68.8999 176.69 69.7124 178.317 70.5249C178.48 71.3374 178.48 71.9874 178.643 72.6374C178.48 72.4749 178.317 72.4749 177.992 72.3124C176.69 73.9374 175.389 75.5624 173.924 77.0249C173.111 77.8374 171.972 78.1624 170.833 78.3249C169.694 78.4874 168.393 77.9999 167.254 77.8374C161.559 76.3749 156.028 78.3249 150.496 78.9749C143.337 79.9499 136.016 80.7624 129.02 82.2249C124.79 83.0374 120.885 84.9874 116.817 86.4499C115.841 86.7749 114.865 87.0999 113.889 87.4249C113.889 87.4249 113.889 87.2624 113.726 87.0999ZM129.833 80.5999C130.972 80.5999 131.623 80.5999 132.274 80.5999C140.246 79.4624 148.381 78.3249 156.353 77.1874C158.794 76.8624 161.722 77.1874 163.512 75.8874C166.115 74.0999 167.905 71.0124 170.182 68.5749C168.23 68.0874 166.766 67.9249 165.301 68.0874C157.98 69.0624 150.821 70.0374 143.5 71.1749C141.222 71.4999 138.619 71.8249 136.829 73.1249C134.226 75.0749 132.274 77.8374 129.833 80.5999Z" fill="white"/>
<path d="M318.889 153.562C308.964 159.9 308.313 169.325 309.127 179.4C309.29 181.675 309.778 183.787 310.266 186.062C311.405 190.612 313.357 194.837 317.425 197.762C314.008 197.762 310.591 198.25 308.151 195.325C306.524 193.375 304.734 191.262 303.921 188.825C300.829 180.05 300.667 171.275 303.921 162.5C304.083 162.175 304.246 161.687 304.409 161.362C307.5 154.862 311.079 152.912 318.889 153.562Z" fill="white"/>
<path d="M347.524 196.462C339.714 196.625 336.298 194.837 333.694 187.525C330.278 178.1 330.278 168.512 335.484 159.575C338.25 154.862 342.806 153.075 348.337 154.375C340.365 159.087 338.25 166.562 338.575 175.012C338.901 183.137 340.202 190.937 347.524 196.462Z" fill="white"/>
<path d="M305.385 197.112C298.064 197.762 295.135 195.325 292.695 189.312C289.115 180.375 288.952 171.275 292.532 162.337C295.135 155.675 299.202 153.4 306.524 154.212C298.552 159.25 296.762 166.725 296.925 175.175C297.25 183.3 298.226 191.262 305.385 197.112Z" fill="white"/>
<path d="M184.175 77.1874C186.29 82.3875 188.405 87.75 190.52 92.95C190.683 92.95 190.683 92.95 190.845 92.95C190.845 85.9625 190.845 78.9749 190.845 71.6624C192.31 71.3374 193.449 71.0124 194.75 70.6874C194.913 70.8499 194.913 71.0124 195.075 71.3374C194.262 71.6624 193.448 72.15 192.472 72.6375C192.472 79.625 192.472 86.6124 192.472 94.0874C195.238 93.9249 197.841 93.7624 200.77 93.4375C200.77 91 200.77 88.5625 200.77 86.125C200.607 86.125 200.445 86.125 200.282 86.125C199.956 88.0749 199.468 90.025 199.143 92.1375C198.329 92.3 197.516 92.2999 196.214 92.625C195.889 91.4874 195.401 90.3499 195.401 89.2124C195.401 84.6624 195.401 80.1124 195.564 75.7249C195.564 74.5874 196.54 73.45 197.191 71.825C197.191 71.6625 196.702 71.1749 196.377 70.6874C196.377 70.5249 196.54 70.3625 196.54 70.2C197.353 70.6875 198.329 71.1749 199.143 71.6624C199.143 71.8249 198.98 71.8249 198.98 71.9874C200.607 72.3124 202.234 72.4749 203.861 72.7999C203.861 76.6999 203.861 80.4375 203.861 84.0125C203.861 86.2875 203.861 88.5624 203.861 90.8374C203.861 93.5999 203.048 94.4124 200.282 94.7374C198.329 94.8999 196.214 94.8999 194.099 95.2249C192.472 95.5499 191.008 95.875 189.544 96.6875C186.941 97.9874 184.5 99.6125 181.897 101.075C181.246 101.4 180.595 101.562 179.945 101.887C179.782 101.725 179.782 101.562 179.619 101.4C180.433 100.912 181.083 100.425 182.06 99.7749C182.06 92.2999 182.06 84.6625 182.06 76.7C181.734 76.2125 181.409 75.4 180.758 74.2625C184.012 73.45 186.941 72.7999 189.869 72.1499C188.405 74.4249 185.476 73.7749 183.524 75.2374C183.687 75.8874 184.012 76.5374 184.175 77.1874C183.849 77.675 183.361 78.1624 183.361 78.6499C183.361 81.7374 183.361 84.9875 183.524 88.075C183.524 91.4875 183.524 94.8999 183.524 98.9624C186.127 97.3374 188.242 96.0374 190.357 94.7374C188.568 90.0249 186.778 85.4749 185.151 80.9249C184.5 79.9499 184.337 78.4874 184.175 77.1874Z" fill="white"/>
<path d="M196.865 197.438C183.849 197.925 170.996 198.413 158.143 199.063C158.143 196.788 158.143 194.838 158.143 192.725C170.345 192.725 182.385 192.725 194.425 192.725C195.238 194.35 196.052 195.813 196.865 197.438Z" fill="white"/>
<path d="M160.258 154.375C162.21 152.75 163.837 151.45 165.627 149.988C180.432 150.475 195.401 150.8 210.369 151.288C210.532 152.75 210.694 154.05 210.694 155.513C193.936 155.188 177.341 154.863 160.258 154.375Z" fill="white"/>
<path d="M314.984 175.5C315.147 172.088 315.635 168.675 317.75 165.75C320.028 162.663 323.282 162.338 325.885 165.1C328.976 168.675 329.952 173.063 329.627 177.45C329.464 180.375 328.651 183.3 327.349 185.9C325.234 190.45 320.679 190.45 317.913 186.225C315.798 183.138 314.984 179.4 314.984 175.5ZM315.798 172.088C320.841 172.413 319.214 176.475 320.516 179.238C319.214 180.05 318.075 180.863 316.611 182C317.587 183.625 318.563 185.575 319.865 187.85C321.167 186.713 322.306 186.225 322.956 185.25C325.885 181.025 325.071 172.9 321.492 169.325C320.353 168.188 319.214 167.538 317.262 168.188C316.937 169.325 316.448 170.625 315.798 172.088ZM326.373 169C325.071 165.913 323.282 164.288 321.492 164.613C320.353 164.775 319.377 165.588 318.075 166.238C319.865 166.888 321.004 167.213 322.143 167.863C323.119 168.513 323.77 169.488 324.909 170.788C324.583 169.488 324.421 168.838 324.258 167.7C325.071 168.188 325.56 168.513 326.373 169ZM326.861 176.475C326.536 178.75 326.698 180.863 326.048 182.65C325.56 184.438 324.421 186.063 323.607 187.688C327.187 186.063 329.627 178.425 326.861 176.475ZM316.286 180.7C319.052 180.05 319.54 178.913 318.726 176.475C317.75 176.475 316.937 176.475 315.635 176.475C315.96 177.938 316.123 179.238 316.286 180.7Z" fill="white"/>
<path d="M357.123 176.475C356.309 179.4 355.659 182.488 354.682 185.25C354.194 186.713 353.055 188.013 351.103 188.013C349.151 188.013 348.012 186.713 347.198 185.25C345.409 181.838 344.595 178.263 344.921 174.525C345.083 171.763 345.897 169 346.71 166.4C347.198 164.775 348.337 163.475 350.29 163.312C352.242 163.312 353.218 164.613 354.032 165.913C356.147 169.163 356.635 172.738 357.123 176.475ZM346.059 181.188C346.873 182.813 347.849 184.6 348.988 186.713C350.127 185.575 350.94 185.088 351.428 184.275C353.706 180.375 353.218 172.9 350.29 169.488C349.476 168.675 348.337 168.188 346.873 167.213C346.222 169.163 345.897 170.3 345.571 171.6C348.175 172.413 348.5 173.063 349.151 178.75C348.337 179.4 347.361 180.213 346.059 181.188ZM352.405 167.863C353.055 168.188 353.544 168.35 354.194 168.675C353.218 166.725 352.405 164.938 350.452 164.938C349.476 164.938 348.663 165.75 348.012 166.075C349.964 167.538 351.428 168.675 353.055 169.975C352.73 169.163 352.567 168.675 352.405 167.863Z" fill="white"/>
<path d="M179.456 76.7001C179.782 77.8376 180.27 78.9751 180.27 80.2751C180.432 85.9626 180.27 91.4876 180.27 97.1751C178.48 98.4751 177.178 100.425 174.738 99.4501C173.274 98.8001 172.623 97.9876 172.948 96.3626C174.25 90.6751 175.389 85.1501 176.853 79.4626C177.178 78.4876 177.992 77.5126 178.643 76.5376C178.805 76.5376 179.131 76.5376 179.456 76.7001Z" fill="white"/>
<path d="M133.087 87.9126C132.111 91.6501 131.46 94.9001 130.647 98.1501C127.23 98.1501 124.139 98.1501 120.722 98.1501C121.373 95.3876 121.861 92.7876 122.512 89.8626C125.929 89.3751 129.345 88.7251 133.087 87.9126Z" fill="white"/>
<path d="M182.06 143.975C182.71 143.812 183.524 143.65 184.175 143.65C189.869 143.812 195.401 143.975 201.095 144.137C204.187 144.137 205.488 143 205.814 140.075C205.976 138.45 205.976 136.662 205.976 135.037C205.976 125.775 205.814 116.512 205.814 107.087C205.814 106.762 205.814 106.6 206.302 106.275C206.464 107.412 206.79 108.712 206.79 109.85C206.952 119.275 206.952 128.537 206.952 137.962C206.952 139.587 206.627 141.375 205.976 142.837C205.325 144.625 203.861 145.762 201.909 145.6C195.564 145.437 189.218 145.112 182.873 144.95C182.548 144.95 182.385 144.787 182.06 144.625C182.06 144.462 182.06 144.3 182.06 143.975Z" fill="white"/>
<path d="M220.619 182.325C218.016 182.325 216.063 182.325 214.111 182.325C211.182 178.262 211.02 170.625 213.948 166.4C214.762 172.25 216.226 177.612 220.619 182.325Z" fill="white"/>
<path d="M27.4961 162.825C23.9167 162.825 20.3374 162.825 16.4326 162.825C17.5715 158.438 20.5001 155.513 23.4286 152.425C24.2421 152.913 25.0556 153.238 25.8691 153.725C24.4048 156 22.7779 158.438 21.3136 160.713C21.4763 160.875 21.639 161.038 21.8017 161.2C22.4525 160.713 23.266 160.225 23.754 159.738C25.2183 160.55 26.3572 161.363 27.6588 162.175C27.6588 162.5 27.4961 162.663 27.4961 162.825Z" fill="white"/>
<path d="M196.052 99.125C197.191 99.2875 198.329 99.45 199.794 99.775C199.306 98.6375 199.143 97.9876 198.818 97.5001C200.445 97.1751 201.909 96.6875 203.373 96.3625C205 97.9875 205.163 100.425 204.024 102.375C203.048 104 200.607 104.65 198.818 104.163C196.702 103.35 195.889 101.725 196.052 99.125Z" fill="white"/>
<path d="M24.893 147.875C24.0795 147.387 23.5914 147.225 23.266 146.9C22.6152 147.712 23.4287 148.85 24.7303 149.012C25.5437 149.175 26.5199 149.012 27.3334 149.012C27.3334 149.337 27.3334 149.5 27.4961 149.825C26.1945 149.825 25.0556 150.15 23.9168 149.987C23.1033 149.825 22.2898 148.688 22.1271 148.038C21.8017 146.25 21.9644 144.3 22.1271 142.35C22.1271 141.863 22.4525 141.212 22.9406 140.888C24.0795 139.912 27.008 139.912 27.9842 140.888C26.3572 141.212 24.8929 141.537 23.4287 141.862C23.4287 142.025 23.5914 142.35 23.5914 142.513C25.0556 142.513 26.3572 142.513 28.3096 142.513C27.008 144.463 26.0318 146.087 24.893 147.875Z" fill="white"/>
<path d="M85.5794 200.525C79.8849 200.85 74.1905 201.175 68.1707 201.5C70.123 199.55 71.75 198.25 74.3532 198.413C77.4445 198.738 80.6984 198.738 83.7897 198.9C84.4405 198.9 85.0913 199.388 85.9048 199.713C85.7421 199.875 85.7421 200.2 85.5794 200.525Z" fill="white"/>
<path d="M178.48 145.6C177.992 145.925 177.667 146.412 177.178 146.412C171.809 146.412 166.44 146.412 161.234 146.412C161.071 146.412 160.909 146.25 160.258 145.762C166.603 144.3 172.46 145.112 178.48 145.6Z" fill="white"/>
<path d="M336.135 154.538C333.857 156.488 331.905 158.113 330.115 159.738C329.301 158.6 328.325 157.3 327.349 156C330.115 154.375 333.044 154.7 336.135 154.538Z" fill="white"/>
<path d="M185.964 101.4C188.405 99.6125 190.195 97.6625 193.286 99.2875C193.286 100.1 193.286 100.912 193.286 102.212C191.008 101.887 188.73 101.562 185.964 101.4Z" fill="white"/>
<path d="M292.369 86.2875C291.067 84.0125 289.929 81.575 288.627 79.3C288.79 79.1375 288.79 78.975 288.952 78.8125C290.417 79.4625 291.881 80.275 293.345 81.0875C293.182 82.875 293.02 84.6625 292.857 86.2875C292.694 86.2875 292.532 86.2875 292.369 86.2875Z" fill="white"/>
<path d="M201.421 138.287C199.956 137.962 199.305 137.8 198.167 137.637C198.167 136.5 198.004 135.362 198.004 133.9C199.305 134.062 200.282 134.225 201.421 134.387C201.421 135.687 201.421 136.825 201.421 138.287Z" fill="white"/>
<path d="M186.29 77.1875C187.429 77.1875 188.079 77.35 189.056 77.35C189.218 79.625 189.218 81.9 189.381 84.175C189.218 84.175 189.056 84.175 188.893 84.3375C188.079 82.0625 187.266 79.7875 186.29 77.1875Z" fill="white"/>
<path d="M305.873 123.013C305.222 122.2 304.409 121.388 303.758 120.575L303.595 120.738C304.083 121.713 304.571 122.85 305.385 124.475C300.504 121.063 297.738 116.838 295.298 112.288C295.135 113.425 294.972 114.563 294.809 116.025C293.345 115.375 292.206 114.888 290.742 114.4C291.067 111.963 291.393 109.525 291.556 107.25C291.881 104.325 290.905 102.7 288.302 101.563C286.512 100.75 284.559 99.9375 282.607 98.9625C282.77 97.0125 282.932 95.3875 283.095 93.4375C284.071 93.7625 284.722 93.925 285.698 94.25C284.559 92.1375 283.746 90.35 282.77 88.5625C281.794 86.775 280.817 85.15 280.167 83.6875C278.377 83.0375 276.913 82.3875 275.286 81.7375C275.936 78.1625 276.262 74.5875 273.659 71.9875C271.381 69.875 268.29 68.4125 265.198 66.4625C265.361 65.325 265.524 63.8625 265.686 62.2375C266.825 62.725 267.802 63.2125 269.266 63.7C268.29 61.75 267.476 60.2875 266.663 58.825C266.663 58.6625 266.5 58.6625 266.5 58.5C263.409 51.025 258.853 45.0125 250.881 42.25C250.556 42.0875 250.23 41.7625 249.579 41.4375C250.23 38.1875 250.881 34.775 251.532 31.2C249.091 30.55 246.976 29.9 244.698 29.25C244.698 29.0875 244.536 28.7625 244.536 28.6C247.139 27.625 249.742 26.4875 252.345 25.675C252.996 25.5125 253.972 26.4875 254.948 26.975C254.948 27.1375 254.786 27.3 254.786 27.4625C254.46 27.625 253.972 27.625 253.321 27.7875C264.385 48.2625 275.286 68.575 286.186 88.8875C286.349 88.8875 286.349 88.725 286.512 88.725C285.536 86.2875 284.559 84.0125 283.583 81.575C283.746 81.575 283.909 81.4125 284.071 81.4125C291.393 95.225 298.877 109.038 306.198 122.85C306.198 122.85 306.036 122.85 305.873 123.013Z" fill="#222222"/>
<path d="M235.425 77.675C235.75 63.05 236.401 48.425 234.286 33.8C233.147 36.4 232.008 39.1625 230.706 41.7625C230.544 41.7625 230.381 41.6 230.218 41.6C230.869 37.375 231.683 33.3125 232.496 28.7625C235.262 28.1125 238.028 27.625 241.119 26.8125C239.004 44.0375 237.214 60.9375 235.425 77.675Z" fill="#222222"/>
<path d="M257.064 99.1251C255.437 98.3126 254.298 97.8251 253.159 97.3376C253.484 93.6001 253.81 90.0251 254.135 86.1251C249.905 84.3376 245.837 82.3876 241.607 80.4376C241.77 78.1626 242.095 75.8876 242.258 73.2876C247.952 76.0501 253.484 78.6501 259.179 81.2501C258.365 87.2626 257.714 92.9501 257.064 99.1251Z" fill="#222222"/>
<path d="M276.587 107.737C275.123 107.087 274.147 106.762 273.008 106.112C273.333 102.375 273.659 98.6374 273.984 94.8999C270.079 93.1124 266.175 91.4874 262.107 89.5374C262.27 87.5874 262.595 85.475 262.921 83.2C268.29 85.8 273.333 88.0749 278.377 90.6749C277.889 96.3624 277.238 101.887 276.587 107.737Z" fill="#222222"/>
<path d="M256.413 62.0751C252.183 59.8001 248.115 57.6876 243.885 55.5751C244.048 53.9501 244.21 52.4876 244.373 50.5376C250.23 53.6251 255.925 56.5501 261.456 59.6376C260.968 64.3501 260.48 68.9001 259.829 73.7751C258.202 72.9626 256.901 72.3126 255.437 71.6626C255.925 68.4126 256.25 65.3251 256.413 62.0751Z" fill="#222222"/>
<path d="M326.048 129.837C324.583 129.187 323.445 128.7 321.98 128.05C322.306 124.312 322.631 120.575 322.956 116.675C320.679 115.537 318.401 114.562 315.96 113.425C316.123 111.962 316.123 110.662 316.286 108.712C320.028 110.5 323.607 112.125 327.024 113.75C326.861 119.275 326.536 124.312 326.048 129.837Z" fill="#222222"/>
<path d="M356.309 143.325C354.682 142.512 353.706 142.025 352.405 141.375C352.405 137.475 352.405 133.737 352.405 129.837C349.964 128.7 347.524 127.562 345.083 126.587C345.083 125.287 345.083 124.15 345.083 122.525C348.988 124.475 352.73 126.1 356.147 127.887C356.309 132.925 356.309 137.962 356.309 143.325Z" fill="#222222"/>
<path d="M337.762 135.038C337.762 130.975 337.762 127.075 337.762 123.175C335.484 122.038 333.206 120.9 330.766 119.925C330.766 118.625 330.766 117.488 330.766 115.863C334.508 117.488 337.925 119.113 341.504 120.738C341.179 125.775 340.853 130.813 340.528 136.175C339.389 135.688 338.575 135.363 337.762 135.038Z" fill="#222222"/>
<path d="M313.357 86.9376C313.032 91.1625 312.706 95.225 312.218 99.6125C310.917 98.9625 309.94 98.475 308.802 97.9875C308.964 95.0625 309.29 92.4625 309.452 89.5375C307.337 88.4 305.222 87.2625 302.782 85.9625C302.944 84.6625 302.944 83.3625 303.107 81.7375C306.849 83.525 310.103 85.15 313.357 86.9376Z" fill="#222222"/>
<path d="M342.643 102.375C342.318 106.275 342.155 110.175 341.829 114.237C340.528 113.587 339.552 113.1 338.413 112.612C338.413 109.85 338.413 107.25 338.413 104.325C336.298 103.188 334.02 101.887 331.742 100.75C331.742 99.45 331.742 98.3125 331.742 96.6875C335.647 98.6375 339.064 100.425 342.643 102.375Z" fill="#222222"/>
<path d="M327.675 107.087C326.373 106.437 325.397 106.112 324.421 105.625C324.746 102.862 324.909 100.1 325.234 97.3375C322.956 96.0375 320.516 94.9 318.238 93.6C318.238 92.3 318.238 91 318.238 89.375C321.98 91.325 325.397 93.1125 328.813 94.9C328.163 98.9625 328 102.862 327.675 107.087Z" fill="#222222"/>
<path d="M356.798 121.713C355.333 121.063 354.357 120.575 353.381 120.088C353.381 117.325 353.381 114.725 353.381 112.125C350.94 110.825 348.5 109.525 345.897 108.225C345.897 107.088 346.059 105.95 346.059 104.488C349.802 106.438 353.218 108.225 356.798 110.013C356.798 113.588 356.798 117.325 356.798 121.713Z" fill="#222222"/>
<path d="M34.4921 114.725C34.004 114.563 33.6786 114.563 33.3532 114.563C32.8651 112.45 34.9802 109.688 37.5834 109.2C43.4405 108.225 49.2976 107.088 55.1548 106.113C56.131 105.95 57.2699 105.788 58.2461 105.625C61.3373 105.3 62.1508 105.95 62.3135 109.2C62.3135 112.125 62.3135 115.05 62.3135 117.813C62.3135 129.188 62.1508 140.725 62.1508 152.1C62.1508 157.3 61.0119 158.438 55.8056 158.6C49.4604 158.763 43.1151 159.088 36.7699 159.413C34.004 159.575 33.3532 158.6 33.5159 155.675C33.8413 153.075 33.6786 150.475 33.8413 147.875C34.004 136.825 34.3294 125.775 34.4921 114.725ZM51.0873 156.325C51.4127 156.325 51.5754 156.325 51.9008 156.325C52.2262 140.563 52.5516 124.8 53.0397 109.038C51.4127 110.5 50.2738 153.725 51.0873 156.325ZM56.6191 107.9C54.9921 109.363 53.6905 154.375 55.4802 156.163C55.8056 140.238 56.131 124.313 56.6191 107.9ZM49.1349 109.688C48.8096 109.688 48.3215 109.688 47.9961 109.688C47.508 125.288 47.1826 140.725 46.8572 156.325C47.3453 156.325 47.6707 156.325 48.1588 156.325C48.4842 140.888 48.8096 125.288 49.1349 109.688ZM40.0238 156.65C40.1865 156.65 40.5119 156.65 40.6746 156.65C41 141.375 41.3254 126.1 41.8135 110.175C40.5119 111.963 39.2103 154.538 40.0238 156.65ZM57.758 155.513C58.0834 155.513 58.4088 155.513 58.7342 155.513C59.2223 139.588 59.7103 123.5 60.0357 107.575C59.7103 107.575 59.385 107.413 59.2223 107.413C59.0596 108.225 58.7342 109.038 58.7342 109.85C58.4088 123.338 58.0834 136.663 57.9207 149.988C57.758 151.775 57.758 153.725 57.758 155.513ZM37.258 156.813C37.5834 141.375 37.9088 126.425 38.2342 111.15C36.6072 113.1 35.7937 155.025 37.258 156.813ZM45.2302 110.338C44.9048 110.338 44.5794 110.338 44.254 110.338C43.7659 125.775 43.4405 141.213 43.2778 156.65C43.6032 156.65 44.0913 156.65 44.4167 156.65C44.5794 141.213 44.9048 125.775 45.2302 110.338Z" fill="#222222"/>
<path d="M218.341 99.7749C221.595 112.937 219.155 126.262 220.131 139.587C218.504 139.587 217.365 139.587 216.552 139.587C216.877 137.637 217.365 135.85 217.365 133.9C217.528 123.337 217.528 112.612 217.69 102.05C217.69 101.237 217.69 100.587 217.69 99.7749C217.853 99.7749 218.179 99.7749 218.341 99.7749Z" fill="#222222"/>
<path d="M73.5396 109.525C72.7261 108.225 71.9126 106.763 70.9364 105.138C70.1229 107.25 69.4721 109.038 68.4959 111.313C67.357 106.113 69.6348 101.075 66.3809 96.85C72.238 96.2 74.5158 98.3125 74.0277 103.35C73.865 105.3 74.0277 107.413 74.0277 109.363C73.865 109.363 73.7023 109.525 73.5396 109.525Z" fill="#222222"/>
<path d="M96.4801 147.55C94.0396 151.288 91.4364 155.188 88.8333 159.088C85.2539 159.088 81.5118 159.088 77.7698 159.088C77.7698 158.925 77.7698 158.925 77.7698 158.763C79.0714 158.113 80.5356 157.788 81.6745 156.975C86.0674 154.213 90.4602 151.288 94.6904 148.525C95.3412 148.2 95.992 147.875 96.4801 147.55Z" fill="#222222"/>
<path d="M96.4802 147.55C96.9683 146.575 97.6191 145.437 98.1072 144.462C99.0834 142.512 99.8969 140.562 101.036 137.8C105.917 135.525 111.611 133.575 118.119 134.062C108.845 135.362 102.337 140.725 96.4802 147.55Z" fill="#222222"/>
<path d="M78.0952 139.262C78.0952 138.287 78.2579 137.15 78.4206 135.85C80.8611 135.687 83.3016 135.687 85.742 135.525C85.742 138.45 85.742 141.05 85.742 143.65C82.1627 144.625 79.3968 144.3 78.4206 142.837C81.1865 142.35 82.1627 140.075 83.7897 138.287C81.8373 136.5 80.2103 136.825 78.0952 139.262Z" fill="#222222"/>
<path d="M218.179 78.3251C218.179 77.8375 218.016 77.35 218.016 76.7001C218.016 71.1751 218.179 65.65 218.179 60.2875C218.179 57.3625 218.992 54.925 221.595 53.3C219.155 58.5 220.456 64.025 219.968 69.225C219.643 72.3125 219.317 75.2375 218.829 78.3251C218.667 78.3251 218.504 78.3251 218.179 78.3251Z" fill="#222222"/>
<path d="M216.063 149.175C216.551 149.988 216.714 150.313 217.202 150.963C217.528 149.338 217.853 148.038 218.178 146.738C218.341 146.738 218.504 146.738 218.504 146.738C218.504 147.225 218.667 147.713 218.667 148.2C218.504 151.288 218.504 154.538 218.341 157.625C218.016 161.363 215.575 162.988 211.508 161.85C217.69 159.413 215.25 154.05 216.063 149.175Z" fill="#222222"/>
<path d="M77.2817 143.813C72.8889 144.3 71.0992 144.138 69.7976 142.838C70.6111 142.838 71.2619 142.838 72.0754 142.838C73.377 141.375 74.8413 139.913 76.3055 138.45C74.6786 136.5 72.5635 136.663 69.9603 138.938C69.9603 137.963 70.123 137.313 70.123 136.338C72.5635 136.175 74.8413 136.013 77.2817 135.85C77.2817 138.613 77.2817 141.213 77.2817 143.813Z" fill="#222222"/>
<path d="M90.2977 143.487C91.5993 140.725 91.5993 140.725 90.2977 138.612C89.8096 139.587 89.3215 140.562 88.8335 141.375C88.6708 141.375 88.6708 141.375 88.5081 141.212C88.5081 140.4 88.5081 139.587 88.5081 138.775C88.5081 137.475 88.5081 136.175 88.5081 134.875C91.1112 134.387 93.389 135.85 94.0398 137.962C94.6906 140.075 93.389 142.187 90.2977 143.487Z" fill="#222222"/>
<path d="M59.5476 161.2C62.8016 159.9 64.5913 157.625 65.2421 154.212C66.0555 156 66.2182 159.575 64.9167 160.387C63.4524 161.362 61.6627 161.525 59.873 162.012C59.7103 161.687 59.5476 161.362 59.5476 161.2Z" fill="#222222"/>
<path d="M81.5119 181.35C81.5119 184.275 81.5119 187.363 81.5119 190.775C60.3611 190.288 39.5357 189.963 18.2222 189.475C18.2222 186.225 18.2222 183.3 18.2222 179.725C20.988 184.925 25.5436 185.413 30.2618 185.413C43.7658 185.413 57.2698 185.413 70.6111 185.413C74.8412 185.413 78.5833 184.6 81.5119 181.35Z" fill="#222222"/>
<path d="M240.143 163.638C238.841 162.5 237.54 161.363 236.401 160.225C245.024 160.225 253.81 160.225 262.27 160.225C265.036 163.15 266.663 165.913 267.639 169.488C267.314 169.488 267.151 169.488 267.151 169.488C264.873 164.775 260.806 164.125 256.25 164.45C251.044 164.775 245.675 164.45 240.468 164.45C240.143 164.125 240.143 163.963 240.143 163.638Z" fill="#222222"/>
<path d="M277.726 168.837C276.262 167.375 275.286 166.237 274.147 164.937C272.52 164.937 271.055 164.775 269.428 164.775C269.591 164.612 269.754 164.45 269.754 164.287C268.615 162.825 267.476 161.525 266.663 160.55C270.893 159.412 276.099 162.662 277.726 168.837Z" fill="#222222"/>
<path d="M173.762 115.375C175.552 115.7 177.016 115.862 178.643 116.188C178.643 125.125 178.643 133.738 178.643 142.675C177.016 142.513 175.389 142.513 173.762 142.35C173.762 133.413 173.762 124.637 173.762 115.375Z" fill="#222222"/>
<path d="M160.095 116.187C160.583 116.025 161.234 115.862 162.048 115.7C162.048 116.675 162.21 117.325 162.21 118.137C162.373 125.125 162.373 132.275 162.536 139.262C162.536 140.237 163.024 141.05 163.349 142.35C162.536 142.512 161.397 142.675 159.933 142.837C160.095 133.9 160.095 125.125 160.095 116.187Z" fill="#222222"/>
<path d="M174.087 111.637C173.925 108.712 173.762 105.625 173.437 102.212C174.901 102.537 176.69 102.862 178.643 103.187C178.643 106.925 178.643 110.175 178.643 113.425C177.016 112.775 175.552 112.287 174.087 111.637Z" fill="#222222"/>
<path d="M160.095 103.512C161.885 103.025 163.349 102.537 164.813 102.212C164.813 102.375 164.976 102.537 164.976 102.537C164 103.187 163.186 103.675 162.21 104.325C162.21 106.762 162.21 109.037 162.21 111.475C161.397 111.637 160.746 111.637 160.095 111.8C160.095 109.2 160.095 106.437 160.095 103.512Z" fill="#222222"/>
<path d="M131.786 170.3C132.274 169.812 132.599 169.325 133.25 168.512C133.901 169.162 134.389 169.65 134.877 170.3C134.064 170.95 133.575 171.275 133.087 171.762C135.69 175.825 136.016 180.375 134.552 184.925C133.087 189.312 129.183 192.4 125.115 192.562C121.048 192.562 117.306 189.8 115.679 185.25C113.889 180.212 114.54 175.5 117.794 171.275C120.56 167.537 126.091 165.262 131.786 170.3ZM130.159 176.475C128.369 171.275 124.139 169.812 120.885 172.575C116.98 175.987 116.817 183.95 120.397 187.687C122.837 190.125 126.254 189.962 128.044 186.875C128.694 185.9 129.02 184.762 129.345 183.625C127.718 184.925 126.417 186.062 124.952 187.2C124.79 187.037 124.627 186.875 124.464 186.712C128.206 183.462 128.694 179.4 127.393 174.362C128.532 175.175 129.183 175.662 130.159 176.475Z" fill="#222222"/>
<path d="M129.833 80.5999C132.436 77.8375 134.226 74.9124 136.829 72.9624C138.456 71.6624 141.222 71.5 143.5 71.0125C150.659 69.875 157.98 68.9 165.302 67.925C166.766 67.7625 168.393 67.925 170.182 68.4125C168.067 70.85 166.115 73.9374 163.512 75.7249C161.722 77.025 158.794 76.6999 156.353 77.0249C148.381 78.1624 140.246 79.3 132.274 80.4375C131.623 80.7625 130.972 80.5999 129.833 80.5999Z" fill="#222222"/>
<path d="M184.175 77.1875C184.5 78.4875 184.5 79.7875 184.988 81.0875C186.615 85.6375 188.405 90.1875 190.195 94.9C188.079 96.2 185.964 97.5 183.361 99.125C183.361 95.0625 183.361 91.65 183.361 88.2375C183.361 85.15 183.198 81.9 183.198 78.8125C183.361 78.325 183.849 77.8375 184.175 77.1875C184.175 77.35 184.175 77.1875 184.175 77.1875Z" fill="#222222"/>
<path d="M315.798 172.088C316.286 170.625 316.774 169.325 317.262 168.025C319.214 167.375 320.516 168.188 321.492 169.163C325.071 172.9 325.885 180.863 322.956 185.088C322.306 186.063 321.167 186.55 319.865 187.688C318.563 185.25 317.587 183.463 316.611 181.838C318.075 180.863 319.377 180.05 320.516 179.075C319.214 176.638 321.004 172.413 315.798 172.088Z" fill="#222222"/>
<path d="M326.373 169C325.56 168.35 325.071 168.188 324.258 167.538C324.583 168.675 324.746 169.325 324.909 170.625C323.77 169.488 323.119 168.35 322.143 167.7C321.167 167.05 319.865 166.725 318.075 166.075C319.214 165.425 320.353 164.613 321.492 164.45C323.282 164.288 325.071 165.913 326.373 169Z" fill="#222222"/>
<path d="M326.861 176.475C329.627 178.425 327.187 186.063 323.607 187.688C324.421 186.063 325.56 184.438 326.048 182.65C326.698 180.863 326.536 178.75 326.861 176.475Z" fill="#222222"/>
<path d="M316.286 180.7C316.123 179.238 315.798 177.938 315.635 176.475C316.774 176.475 317.75 176.475 318.726 176.475C319.702 178.75 319.052 179.888 316.286 180.7Z" fill="#222222"/>
<path d="M346.06 181.187C347.361 180.05 348.337 179.4 349.151 178.75C348.663 173.225 348.337 172.575 345.572 171.6C345.897 170.3 346.385 169.162 346.873 167.212C348.175 168.025 349.476 168.512 350.29 169.487C353.218 172.9 353.706 180.375 351.429 184.275C350.941 185.087 350.127 185.737 348.988 186.712C347.849 184.6 346.873 182.975 346.06 181.187Z" fill="#222222"/>
<path d="M352.405 167.863C352.73 168.675 352.893 169.325 353.056 169.975C351.429 168.675 349.802 167.538 348.012 166.075C348.5 165.75 349.476 164.938 350.452 164.938C352.568 164.938 353.218 166.725 354.195 168.675C353.381 168.188 353.056 168.025 352.405 167.863Z" fill="#222222"/>
<path d="M51.0872 156.325C50.2737 153.725 51.4126 110.5 52.8769 109.2C52.5515 124.962 52.2261 140.725 51.738 156.487C51.5753 156.325 51.4126 156.325 51.0872 156.325Z" fill="white"/>
<path d="M56.619 107.9C56.2936 124.312 55.8055 140.237 55.4801 156.162C53.6904 154.375 54.992 109.362 56.619 107.9Z" fill="white"/>
<path d="M49.135 109.688C48.8096 125.288 48.4842 140.725 48.1588 156.325C47.6707 156.325 47.3453 156.325 46.8572 156.325C47.1826 140.725 47.508 125.288 47.9961 109.688C48.3215 109.688 48.8096 109.688 49.135 109.688Z" fill="white"/>
<path d="M40.0239 156.65C39.2104 154.538 40.512 111.963 41.8136 110.175C41.4882 126.1 41.1628 141.375 40.6747 156.65C40.512 156.65 40.3493 156.65 40.0239 156.65Z" fill="white"/>
<path d="M57.7578 155.512C57.7578 153.562 57.7578 151.775 57.7578 149.825C58.0832 136.5 58.4086 123.175 58.734 110.012C58.734 109.2 59.0594 108.387 59.2221 107.575C59.5475 107.575 59.8729 107.737 60.0356 107.737C59.5475 123.662 59.0594 139.75 58.734 155.675C58.4086 155.675 58.0832 155.512 57.7578 155.512Z" fill="white"/>
<path d="M37.2579 156.812C35.7936 155.025 36.6071 113.1 38.2341 111.15C37.9087 126.587 37.5833 141.537 37.2579 156.812Z" fill="white"/>
<path d="M45.2301 110.337C44.9047 125.775 44.5793 141.212 44.2539 156.65C43.9285 156.65 43.4404 156.65 43.115 156.65C43.2777 141.212 43.7658 125.775 44.0912 110.337C44.5793 110.337 44.9047 110.337 45.2301 110.337Z" fill="white"/>
<path d="M130.159 176.475C129.183 175.663 128.532 175.338 127.393 174.363C128.857 179.4 128.206 183.463 124.464 186.713C124.627 186.875 124.79 187.038 124.952 187.2C126.417 186.063 127.718 184.925 129.345 183.625C128.857 184.763 128.532 185.9 128.044 186.875C126.254 189.8 122.837 190.125 120.397 187.688C116.818 184.113 117.143 175.988 120.885 172.575C124.139 169.65 128.369 171.275 130.159 176.475ZM118.933 180.863C118.933 183.625 120.234 186.063 121.861 186.063C123.651 186.225 125.603 183.788 125.929 180.863C123.651 180.863 121.21 180.863 118.933 180.863Z" fill="white"/>
<path d="M118.933 180.863C121.21 180.863 123.651 180.863 125.929 180.863C125.603 183.788 123.814 186.225 121.861 186.063C120.234 186.063 118.933 183.788 118.933 180.863Z" fill="#222222"/>
</svg>
