<svg width="36" height="37" viewBox="0 0 36 37" fill="none" xmlns="http://www.w3.org/2000/svg">
<path d="M7.25 16.3585C10.13 22.0273 14.76 26.6646 20.43 29.549L24.83 25.1322C25.38 24.5813 26.17 24.4211 26.86 24.6414C29.1 25.3826 31.51 25.7832 34 25.7832C35.11 25.7832 36 26.6746 36 27.7863V34.7972C36 35.909 35.11 36.8004 34 36.8004C15.22 36.8004 0 21.5566 0 2.74726C0 1.63553 0.9 0.744141 2 0.744141H9C10.11 0.744141 11 1.63553 11 2.74726C11 5.24115 11.4 7.65492 12.14 9.89841C12.36 10.5895 12.2 11.3807 11.65 11.9316L7.25 16.3585Z" fill="#FE001A"/>
</svg>
