<svg width="200" height="205" viewBox="0 0 200 205" fill="none" xmlns="http://www.w3.org/2000/svg">
<path d="M196.211 90.8166C190.815 55.3864 168.685 11.8613 124.964 7.30656C124.964 7.30656 91.769 3.25554 59.0479 9.39323C39.6233 13.0341 22.5954 23.8776 11.8176 39.4557C1.0397 55.041 -2.55531 74.0369 1.81467 92.155C4.64906 103.919 6.57215 116.094 6.04115 128.182C5.12266 149.222 5.65366 168.865 26.0182 181.407C44.2014 192.61 67.0846 202.49 88.913 204.224C103.745 205.396 120.386 203.497 134.687 199.626C207.548 179.889 201.607 126.24 196.211 90.8166Z" fill="#F4F7FA"/>
<path d="M122.847 182.522C121.77 182.17 119.747 180.457 119.402 179.795C117.106 175.37 112.27 167.369 113.547 162.253C113.762 161.382 117.86 161.303 118.563 160.598C121.16 159.914 122.1 159.842 124.253 157.971C130.604 152.467 121.189 138.083 135.605 136.385C146.168 135.14 153.946 140.177 155.79 124.448C157.634 108.719 175.236 82.7504 189.552 96.6735C197.768 104.66 185.756 116.065 188.755 126.714C191.604 136.838 186.258 143.717 175.408 147.416C164.559 151.114 168.993 156.374 170.192 165.706C171.627 176.917 155.073 175.722 147.474 174.521C141.346 173.549 125.114 175.219 122.847 182.522Z" fill="#82B378"/>
<g opacity="0.8">
<path opacity="0.8" d="M116.525 171.499L116.46 171.254C134.385 166.332 150.329 156.043 162.557 141.494C174.196 127.643 182.326 110.23 186.064 91.1331L186.315 91.1834C182.57 110.323 174.418 127.779 162.758 141.659C150.487 156.252 134.507 166.57 116.525 171.499Z" fill="#FCFDFE"/>
<path opacity="0.8" d="M136.129 163.454L136.1 163.202C146.684 162.08 162.535 165.167 171.433 170.081L171.311 170.304C162.449 165.411 146.67 162.339 136.129 163.454Z" fill="#FCFDFE"/>
<path opacity="0.8" d="M123.514 169.498L123.378 169.283C128.078 166.404 131.149 161.26 132.505 153.978C133.495 148.639 133.56 142.3 132.699 135.14L132.95 135.112C133.818 142.3 133.754 148.668 132.756 154.028C131.386 161.375 128.279 166.584 123.514 169.498Z" fill="#FCFDFE"/>
<path opacity="0.8" d="M164.329 139.623L164.186 139.414C172.775 133.528 183.711 133.593 191.374 134.68L191.339 134.932C183.725 133.845 172.854 133.788 164.329 139.623Z" fill="#FCFDFE"/>
<path opacity="0.8" d="M177.052 119.44L176.801 119.375C178.085 114.504 179.176 104.315 172.036 90.8526L172.266 90.7302C179.448 104.272 178.35 114.533 177.052 119.44Z" fill="#FCFDFE"/>
</g>
<path d="M123.816 183.407C118.254 181.537 112.715 179.536 107.218 177.414C107.111 177.478 107.462 164.692 114.53 159.216C128.458 148.661 122.624 135.889 121.584 128.758C119.725 118.641 123.428 108.705 133.079 110.28C143.821 111.82 148.916 94.4505 149.863 77.9874C149.77 69.8565 158.869 61.6538 166.64 60.7975C174.605 59.7326 181.242 66.0286 180.747 82.1103C180.998 100.876 165.843 109.446 159.328 117.663C152.927 125.729 162.822 134.961 152.403 141.25C143.57 146.92 133.122 150.258 135.038 159.713C137.069 169.081 134.938 176.061 123.816 183.407Z" fill="#D8DEE8"/>
<g opacity="0.8">
<path opacity="0.8" d="M115.779 182.724C115.8 182.616 125.94 157.381 139.911 133.572C141.949 129.679 144.101 125.765 146.189 121.987C151.772 111.863 157.548 101.387 161.323 90.6151C165.542 78.57 166.827 67.266 165.234 56.0627L165.535 56.0195C167.128 67.2732 165.844 78.6203 161.61 90.7087C157.821 101.509 152.045 111.993 146.455 122.131C144.367 125.909 142.214 129.823 140.176 133.716C126.822 156.475 116.346 181.846 116.08 182.781L115.779 182.724Z" fill="#BEB8F2"/>
<path opacity="0.8" d="M156.795 102.408L156.608 102.171C164.243 96.2203 173.73 87.5139 178.824 82.8369C182.936 79.0593 182.95 79.0665 183.108 79.124L183.008 79.4118L183.058 79.2679L183.101 79.4118C182.9 79.5126 181.192 81.0812 179.025 83.0671C173.93 87.7369 164.437 96.4506 156.795 102.408Z" fill="#BEB8F2"/>
<path opacity="0.8" d="M160.404 92.997C160.541 84.6503 158.165 78.7141 156.149 75.2099C153.946 71.3748 151.621 69.4032 151.306 69.2881C151.306 69.2881 151.341 69.3025 151.384 69.2809L151.262 69.0003C151.349 68.9643 151.435 69.0003 151.571 69.0938C153.559 70.425 160.942 78.3759 160.706 93.0042L160.404 92.997Z" fill="#BEB8F2"/>
<path opacity="0.8" d="M131.328 149.222C133.574 141.825 133.273 133.37 130.424 124.11C128.939 119.274 126.808 114.425 124.095 109.683C123.894 109.338 123.83 109.215 123.808 109.158L124.095 109.057C124.11 109.1 124.225 109.302 124.361 109.532C127.088 114.295 129.226 119.166 130.719 124.023C133.589 133.349 133.89 141.854 131.623 149.315L131.328 149.222Z" fill="#BEB8F2"/>
<path opacity="0.8" d="M135.612 141.818L135.39 141.616C144.223 131.751 158.797 133.565 158.962 133.622L159.048 133.781L158.919 133.91L158.897 133.759L158.862 133.903C158.718 133.881 144.395 132.01 135.612 141.818Z" fill="#BEB8F2"/>
<path opacity="0.8" d="M117.501 178.615C118.211 175.348 118.039 169.527 113.196 160.368C112.923 159.857 112.923 159.857 112.952 159.778L113.095 159.828L113.239 159.792C113.253 159.828 113.346 160.015 113.461 160.224C118.34 169.47 118.513 175.363 117.795 178.68L117.501 178.615Z" fill="#BEB8F2"/>
<path opacity="0.8" d="M120.35 172.736L120.077 172.6C121.254 170.218 124.985 165.814 136.796 163.044C136.961 163.008 137.062 162.979 137.098 162.972L137.184 163.26C137.141 163.274 137.033 163.296 136.861 163.339C125.179 166.081 121.505 170.405 120.35 172.736Z" fill="#BEB8F2"/>
</g>
<path d="M47.3731 162.526C47.0574 165.16 46.4977 167.297 46.0672 169.858C56.8307 166.908 67.7449 166.045 78.6591 163.073C68.9863 152.129 61.1433 148.085 62.0833 131.154C62.5282 123.21 65.7213 107.683 61.172 100.991C55.984 93.3637 50.473 96.7456 50.4874 88.9313C50.5161 76.7207 42.2999 65.5462 27.4606 73.7562C12.8151 81.8582 22.3157 124.34 33.6676 134.09C41.6685 144.322 49.0307 148.761 47.3731 162.526Z" fill="#D8DEE8"/>
<g opacity="0.8">
<path opacity="0.8" d="M62.6572 165.052C61.014 161.267 59.055 157.568 57.1606 153.985L56.4431 152.632C54.9218 149.754 53.6158 147.157 52.4606 144.861C51.8076 143.566 51.1976 142.35 50.5949 141.17C48.7651 137.601 47.4735 135.097 46.8205 133.838C46.5908 133.399 46.4402 133.104 46.3756 132.974C41.3167 123.102 38.059 107.819 36.3081 99.6021C36.1215 98.7099 35.9493 97.9184 35.7986 97.2348C33.2297 85.5135 29.1611 73.6339 23.7004 61.9125L23.8942 61.8262C29.362 73.5619 33.4378 85.4631 36.0067 97.1917C36.1574 97.8752 36.3225 98.6667 36.5162 99.559C38.2671 107.762 41.5176 123.03 46.5621 132.874C46.6267 133.003 46.7774 133.291 47.007 133.737C47.66 134.996 48.9516 137.5 50.7814 141.069C51.3842 142.249 52.0013 143.473 52.6471 144.761C53.8024 147.056 55.1084 149.653 56.6296 152.532L57.3472 153.884C59.2416 157.468 61.2077 161.173 62.8509 164.965L62.6572 165.052Z" fill="#FCFDFE"/>
<path opacity="0.8" d="M53.1567 146.876C50.1214 140.191 49.2388 131.118 50.6093 120.627C51.7502 111.892 54.4555 102.459 58.0218 94.7595L58.2155 94.8459C54.6564 102.531 51.9583 111.935 50.8174 120.656C49.454 131.104 50.3295 140.141 53.3433 146.79L53.1567 146.876Z" fill="#FCFDFE"/>
<path opacity="0.8" d="M36.7888 100.933L36.5735 100.926C36.839 94.5797 37.901 88.2333 38.9271 82.0884C39.6303 77.8863 40.3622 73.5403 40.8287 69.2302L41.0368 69.2518C40.5703 73.5691 39.8384 77.9151 39.1352 82.1244C38.1163 88.2549 37.0543 94.6013 36.7888 100.933Z" fill="#FCFDFE"/>
<path opacity="0.8" d="M41.6324 120.886C36.6381 113.612 26.6568 106.143 20.2776 104.898L20.3206 104.689C26.75 105.941 36.7888 113.446 41.8118 120.764L41.6324 120.886Z" fill="#FCFDFE"/>
</g>
<path d="M35.3467 132.989C39.5588 145.941 46.8637 142.206 56.4001 137.839C56.1346 150.524 56.3499 162.886 56.6011 175.435C50.1788 178.262 45.5218 180.169 40.9007 172.988C35.6768 164.872 32.9357 160.015 22.3587 159.094C11.789 158.173 3.08486 151.474 5.38108 141.084C7.79928 130.154 -2.83507 117.533 5.05817 108.863C18.8283 93.7594 30.9624 119.505 35.3467 132.989Z" fill="#A8D29F"/>
<g opacity="0.8">
<path opacity="0.8" d="M53.8742 159.626C43.0676 155.827 34.1626 152.359 26.1976 145.3C18.577 138.544 14.3362 130.808 12.0328 119.433C10.8345 113.532 9.31324 109.445 7.13184 103.876L7.32558 103.797C9.51416 109.373 11.0354 113.475 12.2409 119.389C14.5371 130.722 18.7564 138.421 26.3411 145.142C34.2774 152.172 43.1609 155.633 53.9459 159.425L53.8742 159.626Z" fill="#FCFDFE"/>
<path opacity="0.8" d="M42.8022 177.586L42.6228 177.471C44.6607 174.291 46.9354 171.628 49.5976 169.34C50.9538 168.167 52.3889 167.318 54.1182 166.397L54.2187 166.584C52.4965 167.498 51.0757 168.34 49.7339 169.498C47.0932 171.779 44.8257 174.427 42.8022 177.586Z" fill="#FCFDFE"/>
<path opacity="0.8" d="M3.96726 149.855L3.89551 149.654C13.4033 146.401 23.155 146.207 31.364 149.107L31.2922 149.308C23.1335 146.423 13.432 146.617 3.96726 149.855Z" fill="#FCFDFE"/>
<path opacity="0.8" d="M15.757 131.413C15.5202 130.413 15.8861 121.829 16.3095 114.122C16.7328 106.387 17.2854 98.0622 17.4863 97.5298L17.6872 97.6017C17.515 98.0551 16.9983 105.474 16.5247 114.137C16.1086 121.829 15.7354 130.391 15.9722 131.37L15.757 131.413Z" fill="#FCFDFE"/>
</g>
<path d="M169.252 76.3754L169.202 75.7566C168.929 72.3028 165.937 69.7125 162.485 69.9499C160.684 70.0722 159.005 70.8781 157.785 72.2165L139.014 92.7306C136.438 95.5512 133.18 97.6595 129.556 98.8611L127.834 99.4296C125.401 100.235 122.847 100.617 120.285 100.552L92.7377 99.8613L115.506 90.6008C118.326 89.4495 119.697 86.2332 118.563 83.3982L118.254 82.6282C117.3 80.2466 114.839 78.8363 112.306 79.2104C103.307 80.5488 82.6559 83.6788 73.7939 85.5208C65.2692 87.2981 53.3361 103.358 47.7319 111.547C45.6796 114.54 44.5746 118.044 44.553 121.678C44.5243 125.808 46.5837 129.679 50.0352 131.938L51.987 133.219C55.6251 135.608 59.9592 136.709 64.3005 136.349L119.316 131.723C126.363 131.133 132.828 127.564 137.098 121.908L167.853 81.182C168.893 79.8148 169.395 78.1023 169.252 76.3754Z" fill="url(#paint0_linear_7_328)"/>
<path d="M69.424 138.587L44.6033 109.431C43.5557 108.201 41.7115 108.057 40.4845 109.107L18.1538 128.218C16.9267 129.269 16.7832 131.118 17.8309 132.348L42.6515 161.504C43.6992 162.735 45.5433 162.879 46.7704 161.828L69.0939 142.717C70.321 141.666 70.4645 139.817 69.424 138.587Z" fill="url(#paint1_linear_7_328)"/>
<path d="M170.587 74.7707L170.536 74.1519C170.264 70.6981 167.271 68.1077 163.82 68.3452C162.019 68.4675 160.34 69.2734 159.12 70.6117L140.355 91.1187C137.779 93.9393 134.522 96.0475 130.898 97.2492L129.176 97.8176C126.743 98.6235 124.189 99.0049 121.627 98.9401L94.0795 98.2493L116.848 88.9888C119.668 87.8376 121.039 84.6212 119.905 81.7862L119.596 81.0163C118.642 78.6346 116.181 77.2243 113.648 77.5985C104.649 78.9368 83.9977 82.0669 75.1357 83.9089C66.611 85.6861 54.6779 101.746 49.0737 109.935C47.0214 112.928 45.9164 116.432 45.8948 120.066C45.8661 124.196 47.9255 128.067 51.377 130.327L53.3288 131.607C56.9669 133.996 61.301 135.097 65.6423 134.737L120.658 130.111C127.705 129.521 134.17 125.952 138.44 120.296L169.194 79.57C170.228 78.2029 170.723 76.4976 170.587 74.7707Z" fill="url(#paint2_linear_7_328)"/>
<path d="M70.4284 141.113L48.1049 160.224C46.8778 161.274 45.0337 161.13 43.986 159.9L19.1654 130.744C18.1177 129.514 18.2612 127.664 19.4883 126.614L20.8516 125.448L41.819 107.503C43.046 106.452 44.8901 106.596 45.9378 107.827L48.4995 110.841L68.6416 134.464L69.9261 135.939L70.7513 136.954C71.7989 138.177 71.6554 140.062 70.4284 141.113Z" fill="url(#paint3_linear_7_328)"/>
<path opacity="0.4" d="M70.4284 141.113L48.1049 160.224C46.8778 161.274 45.0337 161.13 43.986 159.9L19.1654 130.744C18.1177 129.514 18.2612 127.664 19.4883 126.614L20.8516 125.448C21.7916 128.427 24.095 131.169 29.9217 130.183C41.7903 128.175 42.4504 135.212 47.66 138.04C53.9746 141.472 63.1953 136.68 69.9189 135.932L70.7513 136.954C71.7989 138.177 71.6554 140.062 70.4284 141.113Z" fill="url(#paint4_linear_7_328)"/>
<path d="M60.9494 140.595C62.6892 140.595 64.0996 139.18 64.0996 137.436C64.0996 135.691 62.6892 134.277 60.9494 134.277C59.2097 134.277 57.7993 135.691 57.7993 137.436C57.7993 139.18 59.2097 140.595 60.9494 140.595Z" fill="url(#paint5_linear_7_328)"/>
<path d="M49.0163 149.071C50.7561 149.071 52.1665 147.657 52.1665 145.912C52.1665 144.167 50.7561 142.753 49.0163 142.753C47.2766 142.753 45.8662 144.167 45.8662 145.912C45.8662 147.657 47.2766 149.071 49.0163 149.071Z" fill="url(#paint6_linear_7_328)"/>
<path d="M114.232 56.216C124.553 45.8669 124.553 29.0877 114.232 18.7386C103.911 8.38954 87.1783 8.38955 76.8577 18.7386C66.537 29.0877 66.537 45.8669 76.8577 56.216C87.1783 66.565 103.911 66.565 114.232 56.216Z" fill="white"/>
<path d="M112.147 54.1248C121.316 44.9307 121.316 30.0239 112.147 20.8297C102.978 11.6356 88.1119 11.6356 78.9429 20.8297C69.774 30.0239 69.774 44.9307 78.9429 54.1248C88.1119 63.319 102.978 63.319 112.147 54.1248Z" fill="#FE001A"/>
<path d="M93.3618 52.098V48.8745C90.4987 48.7306 87.7145 47.9391 86.179 47.1188L87.4634 41.9597C89.2501 42.8231 91.8262 43.7513 94.6104 43.7513C96.5048 43.7513 97.9327 43.3196 97.9327 42.1396C97.9327 41.0674 96.8205 40.4558 93.8569 39.7363C89.6735 38.7361 86.3871 36.8293 86.3871 32.9222C86.3871 29.4468 88.8914 26.7917 93.3618 26.0362V22.8486H97.617V25.7844C100.437 25.8923 102.267 26.432 103.659 27.0004L102.41 31.9868C101.377 31.5911 99.3391 30.6269 96.2249 30.6269C93.9359 30.6269 93.3618 31.3824 93.3618 32.0947C93.3618 32.9942 94.8974 33.7065 98.0834 34.606C103.049 35.9659 104.907 37.9734 104.907 41.5279C104.907 44.9314 102.367 47.8024 97.617 48.5579V52.1052H93.3618V52.098Z" fill="white"/>
<path d="M60.6069 76.8071C67.6462 69.7485 67.6462 58.3042 60.6069 51.2456C53.5677 44.187 42.1548 44.187 35.1156 51.2456C28.0763 58.3042 28.0763 69.7485 35.1156 76.8071C42.1548 83.8657 53.5677 83.8657 60.6069 76.8071Z" fill="white"/>
<path d="M59.1862 75.3825C65.4408 69.1107 65.4408 58.942 59.1862 52.6702C52.9315 46.3984 42.7908 46.3984 36.5362 52.6702C30.2816 58.942 30.2816 69.1107 36.5362 75.3825C42.7908 81.6543 52.9315 81.6543 59.1862 75.3825Z" fill="#FE001A"/>
<path d="M46.3756 74.001V71.7992C44.4238 71.6985 42.5223 71.166 41.4746 70.5976L42.35 67.079C43.5699 67.669 45.3279 68.3022 47.2295 68.3022C48.5211 68.3022 49.497 68.0072 49.497 67.2013C49.497 66.4674 48.7436 66.0501 46.7129 65.5608C43.8641 64.8772 41.6181 63.582 41.6181 60.9125C41.6181 58.538 43.3259 56.732 46.3756 56.2211V54.0481H49.2746V56.0556C51.1977 56.1276 52.4462 56.4945 53.3934 56.8903L52.5395 60.2865C51.8291 60.0203 50.4442 59.3583 48.3202 59.3583C46.7631 59.3583 46.3684 59.8692 46.3684 60.3585C46.3684 60.9701 47.4161 61.4594 49.5903 62.071C52.9772 62.9992 54.2473 64.3663 54.2473 66.7912C54.2473 69.1153 52.518 71.0725 49.2746 71.5833V74.001H46.3756Z" fill="white"/>
<path d="M157.053 66.072C164.092 59.0134 164.092 47.5691 157.053 40.5105C150.014 33.4519 138.601 33.4519 131.562 40.5105C124.523 47.5691 124.523 59.0134 131.562 66.072C138.601 73.1306 150.014 73.1306 157.053 66.072Z" fill="white"/>
<path d="M155.633 64.6474C161.887 58.3756 161.887 48.2069 155.633 41.9351C149.378 35.6633 139.237 35.6633 132.983 41.9351C126.728 48.2069 126.728 58.3756 132.983 64.6474C139.237 70.9192 149.378 70.9192 155.633 64.6474Z" fill="#FE001A"/>
<path d="M142.817 63.2654V61.0636C140.865 60.9629 138.964 60.4304 137.916 59.862L138.791 56.3434C140.011 56.9334 141.762 57.5666 143.671 57.5666C144.963 57.5666 145.938 57.2716 145.938 56.4657C145.938 55.7318 145.185 55.3145 143.154 54.8252C140.306 54.1416 138.06 52.8464 138.06 50.1769C138.06 47.8024 139.767 45.9964 142.817 45.4855V43.3125H145.716V45.32C147.639 45.392 148.888 45.7589 149.835 46.1547L148.981 49.5509C148.271 49.2847 146.886 48.6227 144.762 48.6227C143.204 48.6227 142.81 49.1336 142.81 49.6229C142.81 50.2345 143.857 50.7238 146.032 51.3354C149.419 52.2636 150.689 53.6307 150.689 56.0556C150.689 58.3797 148.959 60.3369 145.716 60.8477V63.2654H142.817Z" fill="white"/>
<path d="M25.7959 186.876C23.5499 181.018 26.7216 171.413 28.7164 167.059C34.5359 154.374 45.2205 153.942 53.982 153.59C62.5856 153.244 70.895 152.913 76.9728 162.641C80.9482 169.002 84.5934 180.666 82.1609 186.876C79.5991 193.409 72.488 188.343 55.5678 188.257C36.9613 188.164 28.6016 194.193 25.7959 186.876Z" fill="url(#paint7_linear_7_328)"/>
<path d="M62.1048 154.928C62.1048 156.525 58.2156 158.439 53.4151 158.439C48.6146 158.439 44.7253 156.525 44.7253 154.928C44.7253 153.33 48.6146 154.043 53.4151 154.043C58.2156 154.043 62.1048 153.33 62.1048 154.928Z" fill="url(#paint8_linear_7_328)"/>
<path d="M50.222 143.782C48.9017 143.782 51.9514 153.093 47.1508 154.367C46.6844 154.489 46.6127 155.115 47.036 155.345C48.3276 156.043 50.7387 156.935 54.6996 156.935C57.2757 156.935 59.1557 155.964 60.1316 155.302C60.4689 155.079 60.433 154.575 60.0742 154.388C58.596 153.626 56.5366 151.186 57.1537 144.02L50.222 143.782Z" fill="url(#paint9_linear_7_328)"/>
<path d="M46.2109 132.622C46.2325 132.737 46.6271 141.235 48.5646 145.48C49.1171 146.696 51.8797 146.552 53.6593 146.408C55.2092 146.279 57.6418 146.847 58.3235 145.775C61.0718 141.458 60.6053 130.78 60.6053 130.78C60.6053 130.78 59.1989 127.225 53.4153 127.326C47.6317 127.427 46.2109 132.622 46.2109 132.622Z" fill="url(#paint10_linear_7_328)"/>
<path d="M47.5599 137.184C47.5599 137.184 46.3544 135.774 45.2135 135.587C44.0726 135.4 43.3335 138.357 44.8834 140.285C46.4405 142.214 48.2344 140.616 48.2344 140.616L47.5599 137.184Z" fill="url(#paint11_linear_7_328)"/>
<path d="M59.3422 137.184C59.3422 137.184 60.5478 135.774 61.6887 135.587C62.8296 135.4 63.5687 138.357 62.0188 140.285C60.4616 142.214 58.6677 140.616 58.6677 140.616L59.3422 137.184Z" fill="url(#paint12_linear_7_328)"/>
<path d="M46.6127 137.076C46.7634 137.356 46.9428 137.616 47.0576 137.587C47.5456 137.457 45.6584 132.687 47.3949 131.01C48.2918 130.147 49.3036 130.931 52.9775 130.765C56.6802 130.6 57.6274 129.708 58.7468 130.391C59.7657 131.01 60.677 132.78 59.9236 138.026C60.1317 137.975 60.347 137.925 60.5551 137.882C60.268 136.162 60.5838 135.083 60.9354 134.399C61.1937 133.903 61.6601 133.262 61.6242 132.334C61.6027 131.758 61.409 131.73 61.3803 131.262C61.287 129.88 62.8585 129.506 62.9374 128.146C62.9948 127.096 62.0907 126.858 62.2557 125.757C62.3992 124.822 63.1024 124.649 62.9876 123.973C62.8656 123.246 61.9256 122.707 61.2583 122.512C60.5838 122.318 60.3398 122.534 59.938 122.261C59.2993 121.814 59.6079 121.03 59.1415 120.735C58.3163 120.217 56.6802 122.289 55.6182 121.778C54.9796 121.462 55.2235 120.534 54.6567 120.303C53.5588 119.864 51.6213 122.951 50.8392 122.541C50.4661 122.347 50.8248 121.591 50.301 121.044C49.6839 120.397 48.2057 120.397 47.5384 121.08C46.9141 121.721 47.4451 122.484 46.7778 123.297C46.1822 124.023 45.4933 123.728 44.8188 124.311C43.6779 125.304 44.0725 127.549 44.2161 128.348C44.704 131.104 46.2252 131.665 45.888 133.543C45.8019 134.025 45.5938 134.557 45.7445 135.342C45.888 136.119 46.2898 136.702 46.6127 137.076Z" fill="url(#paint13_linear_7_328)"/>
<g opacity="0.3">
<path opacity="0.3" d="M60.6843 131.125C60.548 129.773 61.5956 129.139 61.4234 128.168C61.2799 127.391 60.4045 126.693 59.5793 126.542C57.8212 126.225 56.6875 128.816 54.9366 128.535C53.5876 128.319 53.7383 126.679 52.2098 126.024C49.7916 124.98 47.2586 128.161 45.6513 127.283C45.1705 127.017 44.6826 126.34 44.6467 124.491C43.7282 125.549 44.087 127.592 44.2233 128.348C44.7113 131.104 46.2325 131.665 45.8952 133.543C45.8091 134.025 45.601 134.558 45.7517 135.342C45.8952 136.112 46.2899 136.695 46.62 137.069C46.7707 137.349 46.9501 137.608 47.0649 137.58C47.5528 137.45 45.6656 132.68 47.4021 131.003C48.2991 130.14 49.3109 130.924 52.9848 130.758C56.6875 130.593 57.6347 129.701 58.7541 130.384C59.773 131.003 60.6843 132.773 59.9309 138.019C60.139 137.968 60.3542 137.918 60.5623 137.875C60.2753 136.155 60.591 135.076 60.9426 134.392C61.0503 134.183 61.1938 133.953 61.3158 133.694C61.2871 133.241 61.2153 132.744 61.0503 132.226C60.8637 131.622 60.7274 131.557 60.6843 131.125Z" fill="url(#paint14_linear_7_328)"/>
</g>
<path d="M136.976 167.822C125.179 165.908 122.574 164.584 121.369 162.159C119.625 158.641 120.895 152.935 123.88 149.423C126.506 146.344 129.786 145.732 129.685 143.595C129.606 141.839 127.36 141.609 125.71 138.306C125.229 137.342 124.296 135.471 124.705 133.219C125.301 129.917 128.336 128.183 128.58 128.053C131.759 126.304 133.574 128.312 135.971 126.743C138.978 124.779 137.614 120.649 140.427 119.447C142.479 118.577 145.099 119.958 145.787 120.318C148.069 121.52 147.832 122.743 149.763 123.484C152.03 124.362 153.114 122.966 155.747 123.52C157.929 123.98 159.507 125.484 160.792 127.002C163.691 130.42 162.248 132.449 164.387 136.666C167.401 142.602 171.964 141.919 172.768 146.689C173.191 149.186 172.108 150.316 172.94 154.129C173.507 156.712 174.21 157.173 174.339 158.691C174.698 163.059 169.482 166.872 168.506 167.549C162.342 171.823 153.803 170.549 136.976 167.822Z" fill="url(#paint15_linear_7_328)"/>
<path opacity="0.7" d="M156.149 156.417C148.198 155.842 142.831 163.03 140.707 161.238C138.698 159.547 144.381 153.834 142.436 147.157C140.527 140.602 133.058 139.242 133.653 135.551C134.32 131.377 144.338 130.291 144.101 127.204C143.965 125.383 140.413 125.002 139.709 122.117C139.516 121.332 139.58 120.555 139.781 119.829C137.837 121.361 138.719 124.945 135.985 126.736C133.589 128.305 131.773 126.297 128.594 128.046C128.35 128.182 125.308 129.917 124.719 133.212C124.31 135.464 125.243 137.335 125.724 138.299C127.374 141.602 129.62 141.825 129.699 143.588C129.793 145.725 126.521 146.329 123.894 149.416C120.902 152.928 119.632 158.626 121.383 162.152C122.588 164.577 125.186 165.901 136.99 167.815C153.817 170.542 162.356 171.816 168.541 167.556C170.945 165.901 173.772 163.073 174.382 160.547C173.17 161.627 171.978 162.145 170.866 162.339C165.7 163.253 163.317 156.928 156.149 156.417Z" fill="url(#paint16_linear_7_328)"/>
<path d="M123.83 183.011C122.057 178.644 123.141 171.837 123.363 170.398C124.253 164.793 126.341 161.332 127.109 160.094C132.347 151.625 140.348 151.704 146.412 151.769C149.418 151.798 152.54 151.74 156.357 153.1C156.357 153.1 159.385 154.179 161.954 155.971C169.654 161.346 175.767 178.939 169.524 185.515C165.556 189.689 161.502 184.278 144.051 186.66C137.105 187.609 129.829 189.25 125.53 185.508C124.813 184.889 124.26 184.069 123.83 183.011Z" fill="url(#paint17_linear_7_328)"/>
<path d="M143.226 141.487C143.226 141.487 144.503 150.675 138.031 152.496C137.284 152.704 137.055 153.654 137.621 154.187L145.601 161.706C146.082 162.159 146.849 162.13 147.294 161.634L154.535 153.611C155.008 153.086 154.8 152.244 154.14 151.999C151.815 151.143 147.653 148.646 148.529 141.926L143.226 141.487Z" fill="url(#paint18_linear_7_328)"/>
<path d="M139.257 136.385C139.257 136.486 141.001 145.451 145.479 145.451C149.72 145.451 151.334 138.846 151.858 135.766C151.915 135.241 151.973 134.716 152.023 134.191C151.736 134.284 151.018 134.478 150.164 134.248C149.971 134.198 148.736 133.86 148.284 132.845C147.775 131.708 148.715 130.809 148.177 129.816C147.868 129.24 147.244 128.974 146.77 128.837C147.086 129.305 147.703 130.341 147.352 131.284C147.115 131.917 146.462 132.528 145.005 132.895C140.843 133.953 139.214 134.356 139.257 136.385Z" fill="url(#paint19_linear_7_328)"/>
<path d="M140.348 137.457C140.348 137.457 138.038 135.5 137.837 136.702C137.421 139.199 139.394 140.58 140.463 139.832C141.539 139.083 140.348 137.457 140.348 137.457Z" fill="url(#paint20_linear_7_328)"/>
<path d="M150.523 137.457C150.523 137.457 152.834 135.5 153.035 136.702C153.451 139.199 151.478 140.58 150.409 139.832C149.339 139.083 150.523 137.457 150.523 137.457Z" fill="url(#paint21_linear_7_328)"/>
<path d="M101.47 197.697C73.8297 197.913 64.1354 201.561 59.7439 195.553C55.704 190.027 59.0478 170.175 63.8699 164.598C71.4905 155.784 83.725 155.352 100.466 154.885C116.209 154.446 125.911 154.172 133.567 160.979C140.729 167.34 145.299 189.286 140.843 195.395C136.71 201.065 127.863 197.496 101.47 197.697Z" fill="#FD1C15"/>
<path d="M93.6346 142.257C93.6346 142.257 95.4141 155.086 92.9529 156.316L99.9563 163.965L107.046 154.906C107.046 154.906 104.362 152.884 105.073 142.264H93.6346V142.257Z" fill="url(#paint22_linear_7_328)"/>
<path d="M89.5013 123.894C89.2502 124.239 85.9637 140.407 97.3372 142.098C108.711 143.789 109.213 131.838 109.062 126.772C108.912 121.706 103.716 119.864 100.738 119.505C97.7677 119.152 90.3983 122.678 89.5013 123.894Z" fill="url(#paint23_linear_7_328)"/>
<path d="M88.8412 133.334C88.8412 133.334 88.2744 130.694 86.3226 132.341C84.378 133.989 87.4707 138.364 90.0252 138.184L88.8412 133.334Z" fill="url(#paint24_linear_7_328)"/>
<path d="M108.718 131.492C108.388 131.715 107.455 137.918 107.455 137.918C107.455 137.918 109.098 138.112 110.282 135.881C111.466 133.658 112.04 129.24 108.718 131.492Z" fill="url(#paint25_linear_7_328)"/>
<path d="M113.181 119.641C111.983 117.648 108.955 118.591 108.072 116.67C107.333 115.058 109.077 113.54 108.137 112.144C107.354 110.978 105.438 111.007 105.101 111.014C102.518 111.05 101.922 113.108 100.078 113.058C97.8251 113 97.739 109.913 94.7611 108.618C91.8765 107.359 87.65 108.388 85.9494 110.748C84.6219 112.583 85.7484 113.935 84.0119 116.296C82.8136 117.922 81.7588 117.994 81.1632 119.577C80.6035 121.066 80.9838 122.491 81.278 123.549C81.9884 126.081 83.3015 127.197 85.2964 129.888C86.1862 131.097 87.4132 132.881 88.6761 135.234C89.2071 136.651 89.9606 138.846 90.6638 141.616C91.3024 144.135 91.2665 144.645 91.8621 145.466C93.9144 148.279 98.6073 148.006 100.581 147.898C102.841 147.768 105.661 147.603 107.075 145.631C107.842 144.566 107.742 143.602 107.921 141.026C108.05 139.191 108.309 136.608 108.904 133.485C108.919 133.485 109.17 132.054 109.83 130.283C110.655 128.082 111.509 127.729 112.442 125.448C113.195 123.628 114.157 121.268 113.181 119.641ZM103.767 136.853C102.367 137.234 101.427 136.889 99.5329 136.781C95.7442 136.565 94.5458 138.342 92.7519 137.558C92.0056 137.234 90.2835 136.32 89.9175 134.572C89.7094 133.435 89.5587 131.888 89.8027 130.089C90.0969 127.895 90.4413 125.369 92.1922 124.246C94.7324 122.62 97.983 125.419 100.308 123.606C101.198 122.915 101.556 121.858 101.721 121.059C102.238 121.239 106.357 122.735 107.871 127.146C108.804 129.866 108.273 132.284 107.814 133.601C106.96 134.896 105.654 136.342 103.767 136.853Z" fill="url(#paint26_linear_7_328)"/>
<path d="M95.9022 139.522C97.366 139.976 99.5618 140.285 102.03 139.35C102.289 139.249 102.504 139.53 102.289 139.688C101.406 140.314 100.121 140.983 98.7222 140.882C97.567 140.796 96.505 140.35 95.6869 139.882C95.4501 139.745 95.6367 139.443 95.9022 139.522Z" fill="url(#paint27_linear_7_328)"/>
<path d="M96.8206 160.54C96.8206 160.54 98.0906 165.052 99.3751 165.138C100.652 165.224 101.592 165.397 101.592 165.397L103.02 160.036C103.02 160.036 100.703 161.432 96.8206 160.54Z" fill="url(#paint28_linear_7_328)"/>
<path d="M98.9805 164.98L94.9478 192.142L99.2532 195.762L105.144 191.869L101.592 165.397L98.9805 164.98Z" fill="url(#paint29_linear_7_328)"/>
<defs>
<linearGradient id="paint0_linear_7_328" x1="46.113" y1="173.745" x2="94.6635" y2="113.848" gradientUnits="userSpaceOnUse">
<stop stop-color="#FFC444"/>
<stop offset="0.129" stop-color="#FDB946"/>
<stop offset="0.1674" stop-color="#FDB647"/>
<stop offset="0.9964" stop-color="#F36F56"/>
</linearGradient>
<linearGradient id="paint1_linear_7_328" x1="37.5626" y1="163.577" x2="53.9223" y2="88.154" gradientUnits="userSpaceOnUse">
<stop offset="0.003597" stop-color="#6165D7"/>
<stop offset="1" stop-color="#AA80F9"/>
</linearGradient>
<linearGradient id="paint2_linear_7_328" x1="124.911" y1="61.0337" x2="-24.0778" y2="376.75" gradientUnits="userSpaceOnUse">
<stop stop-color="#FFC444"/>
<stop offset="0.9964" stop-color="#F36F56"/>
</linearGradient>
<linearGradient id="paint3_linear_7_328" x1="45.4375" y1="151.629" x2="50.2812" y2="331.047" gradientUnits="userSpaceOnUse">
<stop offset="0.003597" stop-color="#6165D7"/>
<stop offset="1" stop-color="#AA80F9"/>
</linearGradient>
<linearGradient id="paint4_linear_7_328" x1="44.8166" y1="128.505" x2="48.0486" y2="248.222" gradientUnits="userSpaceOnUse">
<stop offset="0.003597" stop-color="#6165D7"/>
<stop offset="1" stop-color="#AA80F9"/>
</linearGradient>
<linearGradient id="paint5_linear_7_328" x1="28.368" y1="161.003" x2="67.8693" y2="132.586" gradientUnits="userSpaceOnUse">
<stop offset="0.003597" stop-color="#6165D7"/>
<stop offset="1" stop-color="#AA80F9"/>
</linearGradient>
<linearGradient id="paint6_linear_7_328" x1="28.2943" y1="160.9" x2="67.7956" y2="132.484" gradientUnits="userSpaceOnUse">
<stop offset="0.003597" stop-color="#6165D7"/>
<stop offset="1" stop-color="#AA80F9"/>
</linearGradient>
<linearGradient id="paint7_linear_7_328" x1="43.7149" y1="183.307" x2="71.0707" y2="165.12" gradientUnits="userSpaceOnUse">
<stop stop-color="#FFC444"/>
<stop offset="0.9964" stop-color="#F36F56"/>
</linearGradient>
<linearGradient id="paint8_linear_7_328" x1="53.484" y1="159.129" x2="53.2618" y2="145.611" gradientUnits="userSpaceOnUse">
<stop stop-color="#AA80F9"/>
<stop offset="0.9964" stop-color="#6165D7"/>
</linearGradient>
<linearGradient id="paint9_linear_7_328" x1="53.5889" y1="160.528" x2="53.5148" y2="148.704" gradientUnits="userSpaceOnUse">
<stop stop-color="#AB316D"/>
<stop offset="1" stop-color="#792D3D"/>
</linearGradient>
<linearGradient id="paint10_linear_7_328" x1="52.6114" y1="143.608" x2="54.5371" y2="120.489" gradientUnits="userSpaceOnUse">
<stop stop-color="#AB316D"/>
<stop offset="1" stop-color="#792D3D"/>
</linearGradient>
<linearGradient id="paint11_linear_7_328" x1="45.7886" y1="143.04" x2="47.7144" y2="119.921" gradientUnits="userSpaceOnUse">
<stop stop-color="#AB316D"/>
<stop offset="1" stop-color="#792D3D"/>
</linearGradient>
<linearGradient id="paint12_linear_7_328" x1="60.3685" y1="144.255" x2="62.2942" y2="121.136" gradientUnits="userSpaceOnUse">
<stop stop-color="#AB316D"/>
<stop offset="1" stop-color="#792D3D"/>
</linearGradient>
<linearGradient id="paint13_linear_7_328" x1="52.105" y1="132.461" x2="57.2131" y2="116.662" gradientUnits="userSpaceOnUse">
<stop stop-color="#311944"/>
<stop offset="1" stop-color="#6B3976"/>
</linearGradient>
<linearGradient id="paint14_linear_7_328" x1="52.1054" y1="132.461" x2="57.2135" y2="116.663" gradientUnits="userSpaceOnUse">
<stop stop-color="#311944"/>
<stop offset="1" stop-color="#6B3976"/>
</linearGradient>
<linearGradient id="paint15_linear_7_328" x1="165.224" y1="115.82" x2="151.028" y2="143.544" gradientUnits="userSpaceOnUse">
<stop stop-color="#AB316D"/>
<stop offset="1" stop-color="#792D3D"/>
</linearGradient>
<linearGradient id="paint16_linear_7_328" x1="165.2" y1="116.011" x2="151.045" y2="143.655" gradientUnits="userSpaceOnUse">
<stop stop-color="#AB316D"/>
<stop offset="1" stop-color="#792D3D"/>
</linearGradient>
<linearGradient id="paint17_linear_7_328" x1="151.312" y1="205.225" x2="144.433" y2="155.49" gradientUnits="userSpaceOnUse">
<stop offset="0.00359712" stop-color="#E38DDD"/>
<stop offset="1" stop-color="#9571F6"/>
</linearGradient>
<linearGradient id="paint18_linear_7_328" x1="146.496" y1="162.982" x2="145.509" y2="141.611" gradientUnits="userSpaceOnUse">
<stop stop-color="#FFC444"/>
<stop offset="0.9964" stop-color="#F36F56"/>
</linearGradient>
<linearGradient id="paint19_linear_7_328" x1="145.406" y1="144.186" x2="145.785" y2="129.727" gradientUnits="userSpaceOnUse">
<stop stop-color="#FFC444"/>
<stop offset="0.9964" stop-color="#F36F56"/>
</linearGradient>
<linearGradient id="paint20_linear_7_328" x1="139.232" y1="142.682" x2="139.577" y2="129.485" gradientUnits="userSpaceOnUse">
<stop stop-color="#FFC444"/>
<stop offset="0.9964" stop-color="#F36F56"/>
</linearGradient>
<linearGradient id="paint21_linear_7_328" x1="151.399" y1="143.001" x2="151.744" y2="129.803" gradientUnits="userSpaceOnUse">
<stop stop-color="#FFC444"/>
<stop offset="0.9964" stop-color="#F36F56"/>
</linearGradient>
<linearGradient id="paint22_linear_7_328" x1="100.389" y1="158.145" x2="103.44" y2="177.92" gradientUnits="userSpaceOnUse">
<stop stop-color="#FFC444"/>
<stop offset="0.9964" stop-color="#F36F56"/>
</linearGradient>
<linearGradient id="paint23_linear_7_328" x1="98.9903" y1="127.916" x2="98.2274" y2="178.122" gradientUnits="userSpaceOnUse">
<stop stop-color="#FFC444"/>
<stop offset="0.9964" stop-color="#F36F56"/>
</linearGradient>
<linearGradient id="paint24_linear_7_328" x1="86.801" y1="125.132" x2="91.7466" y2="175.098" gradientUnits="userSpaceOnUse">
<stop stop-color="#FFC444"/>
<stop offset="0.9964" stop-color="#F36F56"/>
</linearGradient>
<linearGradient id="paint25_linear_7_328" x1="109.437" y1="128.075" x2="108.674" y2="178.28" gradientUnits="userSpaceOnUse">
<stop stop-color="#FFC444"/>
<stop offset="0.9964" stop-color="#F36F56"/>
</linearGradient>
<linearGradient id="paint26_linear_7_328" x1="80.886" y1="128.015" x2="113.597" y2="128.015" gradientUnits="userSpaceOnUse">
<stop stop-color="#444B8C"/>
<stop offset="0.9964" stop-color="#3E4177"/>
</linearGradient>
<linearGradient id="paint27_linear_7_328" x1="101.39" y1="118.758" x2="99.2602" y2="137.094" gradientUnits="userSpaceOnUse">
<stop stop-color="#FFC444"/>
<stop offset="0.9964" stop-color="#F36F56"/>
</linearGradient>
<linearGradient id="paint28_linear_7_328" x1="98.9292" y1="145.716" x2="100.644" y2="170.772" gradientUnits="userSpaceOnUse">
<stop stop-color="#444B8C"/>
<stop offset="0.9964" stop-color="#26264F"/>
</linearGradient>
<linearGradient id="paint29_linear_7_328" x1="100.045" y1="185.379" x2="100.045" y2="148.153" gradientUnits="userSpaceOnUse">
<stop stop-color="#444B8C"/>
<stop offset="0.9964" stop-color="#26264F"/>
</linearGradient>
</defs>
</svg>
