<svg width="258" height="134" viewBox="0 0 258 134" fill="none" xmlns="http://www.w3.org/2000/svg">
<path d="M19.6143 133.061C19.6143 133.061 -9.86901 101.359 14.6274 67.035C36.364 36.5811 61.6979 38.6685 80.2939 51.0216C88.212 56.2832 111.043 51.6698 130.467 20.6821C156.962 -21.5721 248.809 4.05876 232.069 69.0652C223.961 100.53 256.737 101.673 240.035 133.119L19.6143 133.061Z" fill="#F4F7FA"/>
<path d="M76.2205 71.7818C76.2205 71.7818 61.6407 50.9931 55.9401 53.681C50.2394 56.3785 76.2205 71.7818 76.2205 71.7818Z" fill="#A8D29F"/>
<path d="M75.2975 66.1959C75.2975 66.1959 73.0706 50.5639 69.5589 51.1739C66.0471 51.7839 75.2975 66.1959 75.2975 66.1959Z" fill="#A8D29F"/>
<path d="M62.9638 114.922C62.9638 114.922 64.3628 107.964 58.9191 107.087C58.9191 107.087 55.2266 106.954 53.0568 108.355C53.0568 108.355 59.2332 111.929 58.5004 113.035C57.7676 114.141 51.9052 108.565 51.9052 108.565C51.9052 108.565 45.2815 111.472 43.8063 113.569C43.8063 113.569 51.6292 114.96 50.6395 115.856C49.6592 116.752 41.4462 115.675 41.4462 115.675C41.4462 115.675 36.1548 119.945 38.4579 123.339C40.7609 126.732 43.3876 126.713 44.2251 126.122C45.0531 125.531 49.1263 120.66 49.6497 121.318C50.1636 121.985 48.3744 126.103 46.2522 127.428C46.2522 127.428 52.914 129.677 54.9125 126.827C56.9206 123.977 55.9879 121.766 57.2632 120.031C58.5385 118.296 59.9946 117.486 59.7281 118.668C59.4711 119.86 56.8064 122.357 56.7969 124.635C56.7874 126.913 56.559 128.572 59.1571 126.551C61.7552 124.54 65.2003 119.888 64.0773 117.391C62.9638 114.922 62.9638 114.922 62.9638 114.922Z" fill="#82B378"/>
<path d="M41.3984 121.823C41.3984 121.823 56.93 112.33 62.9732 114.913C62.9732 114.913 65.0479 116.8 68.6167 117.591L69.5589 118.401C69.5589 118.401 65.1906 117.038 64.1057 117.41C64.0867 117.41 62.4878 110.919 41.3984 121.823Z" fill="#82B378"/>
<path d="M68.6072 117.591C68.6072 117.591 73.4227 118.211 76.1731 122.586L75.5831 122.986C75.5831 122.986 71.8905 118.935 68.9117 118.211C65.9234 117.486 68.6072 117.591 68.6072 117.591Z" fill="#82B378"/>
<path d="M67.7221 94.6196C67.7221 94.6196 78.9996 88.2906 73.7368 79.712C73.7368 79.712 69.5304 74.441 65.0194 73.0875C65.0194 73.0875 67.4271 85.8886 65.0194 86.1936C62.6116 86.4986 63.3634 71.7339 63.3634 71.7339C63.3634 71.7339 51.4863 66.0149 46.8231 66.4629C46.8231 66.4629 54.1891 78.959 51.7814 78.6635C49.3736 78.3585 41.1034 65.7099 41.1034 65.7099C41.1034 65.7099 28.9218 63.4509 26.9709 70.6759C25.0199 77.901 28.17 81.5135 29.9782 81.971C31.7864 82.419 43.3589 82.276 43.0639 83.7821C42.7594 85.2881 34.946 87.6996 30.5873 86.3461C30.5873 86.3461 35.4028 98.2417 41.7125 97.6412C48.0317 97.0407 49.9827 93.1232 53.8941 92.8182C57.8056 92.5131 60.6606 93.5712 58.7097 94.6292C56.7587 95.6872 50.1349 94.9723 46.9849 97.6603C43.8253 100.348 41.2747 102.007 47.1371 103.208C52.9995 104.409 63.5252 103.656 65.6284 99.1377C67.7221 94.6197 67.7221 94.6196 67.7221 94.6196Z" fill="#A8D29F"/>
<path d="M32.5381 72.9348C32.5381 72.9348 64.1151 83.1719 67.722 94.6195C67.722 94.6195 67.5697 99.7381 70.7293 105.61V107.869C70.7293 107.869 67.4174 100.186 65.6188 99.1376C65.6188 99.1376 72.6803 89.196 32.5381 72.9348Z" fill="#FCFDFE"/>
<path d="M70.7295 105.61C70.7295 105.61 75.6022 113.016 72.8232 122.033L71.567 121.699C71.567 121.699 72.7852 111.767 70.2347 106.772C67.6841 101.778 70.7295 105.61 70.7295 105.61Z" fill="#82B378"/>
<path d="M79.1804 41.6995L62.3069 129.067C61.9643 130.84 63.3252 132.499 65.1335 132.499H74.0317L79.1804 41.6995Z" fill="#DB1414"/>
<path d="M191.346 66.7108C191.346 66.7108 183.752 61.8591 187.758 56.1019C187.758 56.1019 190.899 52.6038 194.087 51.8413C194.087 51.8413 191.908 60.6486 193.564 60.9536C195.229 61.2586 195.286 50.9643 195.286 50.9643C195.286 50.9643 203.775 47.4567 207.002 47.9618C207.002 47.9618 201.377 56.3593 203.062 56.2449C204.746 56.1305 210.999 47.6664 210.999 47.6664C210.999 47.6664 219.554 46.5797 220.63 51.6887C221.705 56.7978 219.364 59.1807 218.089 59.419C216.813 59.6573 208.772 59.0949 208.924 60.1529C209.076 61.211 214.415 63.2031 217.499 62.431C217.499 62.431 213.682 70.5139 209.314 69.8372C204.946 69.17 203.747 66.3676 201.034 65.9959C198.332 65.6337 196.295 66.2533 197.618 67.0634C198.931 67.8736 203.566 67.6449 205.65 69.6465C207.734 71.6387 209.447 72.8969 205.327 73.4974C201.196 74.0979 193.916 73.1542 192.631 69.9325C191.346 66.7108 191.346 66.7108 191.346 66.7108Z" fill="#C5CAD1"/>
<path d="M216.671 53.033C216.671 53.033 194.306 58.895 191.337 66.711C191.337 66.711 191.242 70.2759 188.805 74.2316L188.72 75.8043C188.72 75.8043 191.327 70.6 192.622 69.9327C192.631 69.9327 188.111 62.7363 216.671 53.033Z" fill="#C7DCFB"/>
<path d="M188.815 74.2314C188.815 74.2314 185.132 79.1879 186.702 85.5646L187.587 85.3835C187.587 85.3835 187.14 78.4253 189.11 75.0606C191.08 71.6864 188.815 74.2314 188.815 74.2314Z" fill="#C7DCFB"/>
<path d="M170.904 45.6646C170.904 45.6646 159.246 43.1006 161.597 34.1026C161.597 34.1026 163.909 28.3168 167.535 25.9053C167.535 25.9053 168.83 37.8676 171.037 37.4864C173.245 37.1051 168.63 24.2659 168.63 24.2659C168.63 24.2659 177.604 16.0209 181.839 15.163C181.839 15.163 178.67 28.1929 180.716 27.2779C182.762 26.3628 186.693 12.9612 186.693 12.9612C186.693 12.9612 196.857 7.69968 200.521 13.5617C204.185 19.4237 202.358 23.4652 200.882 24.3516C199.407 25.2381 189.129 28.212 189.805 29.4607C190.471 30.7093 198.027 30.7474 201.52 28.374C201.52 28.374 200.454 40.1839 194.706 41.3467C188.958 42.5096 186.188 39.5738 182.648 40.3554C179.108 41.137 176.871 42.8337 178.879 43.2435C180.887 43.6534 186.55 41.2514 190.062 42.7765C193.573 44.3016 196.276 45.0832 191.413 47.7235C186.55 50.3638 177.043 52.5179 173.978 49.096C170.904 45.6646 170.904 45.6646 170.904 45.6646Z" fill="#D8DEE8"/>
<path d="M196.21 17.0505C196.21 17.0505 171.038 34.5794 170.904 45.6648C170.904 45.6648 172.408 50.1543 171.19 56.1879L171.799 58.1895C171.799 58.1895 172.665 50.5165 173.978 49.0963C173.978 49.0867 165.07 42.1953 196.21 17.0505Z" fill="#D8DEE8"/>
<path d="M171.19 56.1878C171.19 56.1878 168.867 64.0419 173.731 71.267L174.749 70.6283C174.749 70.6283 171.018 62.1737 171.932 57.0742C172.855 51.9843 171.19 56.1878 171.19 56.1878Z" fill="#D8DEE8"/>
<path d="M79.3801 41.347L68.1978 127.133C67.8266 129.973 70.0345 132.499 72.8991 132.499H89.3062L80.0558 41.042L79.3801 41.347Z" fill="#78ACEA"/>
<path d="M79.3801 41.3467L74.3743 126.579C74.1839 129.792 76.7344 132.489 79.9416 132.489H104.41L79.3801 41.3467Z" fill="#699DEE"/>
<path d="M79.1995 42.0427L81.6358 126.58C81.4454 129.792 83.996 132.489 87.2032 132.489H111.671L79.1995 42.0427Z" fill="#5288D8"/>
<path d="M196.352 132.499H99.87C97.4622 132.499 95.3971 130.774 94.9593 128.4L80.2843 47.9907C79.6181 44.34 82.4161 40.9753 86.1276 40.9753H181.477C183.885 40.9753 185.95 42.7006 186.388 45.074L201.272 126.608C201.815 129.668 199.464 132.499 196.352 132.499Z" fill="#D7E9FF"/>
<path d="M82.1877 58.428H188.872L186.141 43.2439C185.903 41.9285 184.761 40.9658 183.419 40.9658H80.0845C79.523 40.9658 79.0947 41.4805 79.1994 42.0334L82.1877 58.428Z" fill="#FD1C15"/>
<path d="M84.6906 36.3999C82.1401 36.3999 80.0654 38.4778 80.0654 41.0323H80.9505C80.9505 38.9639 82.6255 37.2864 84.6906 37.2864C86.7558 37.2864 88.4308 38.9639 88.4308 41.0323C88.4308 41.4422 88.3642 41.8425 88.2404 42.2143C87.8693 43.3104 87.0128 44.1873 85.9183 44.5686C85.5947 44.683 85.2616 44.7497 84.9095 44.7688V45.6552C85.3187 45.6362 85.7185 45.5694 86.0896 45.4455C87.5933 44.9689 88.7639 43.7489 89.1636 42.2143C89.2587 41.833 89.3158 41.4422 89.3158 41.0323C89.3158 38.4778 87.2412 36.3999 84.6906 36.3999Z" fill="#78ACEA"/>
<path d="M86.1184 45.1883C86.1184 45.2837 86.1089 45.3694 86.0803 45.4552C85.9661 45.8841 85.576 46.1892 85.1191 46.1892C84.5672 46.1892 84.1199 45.7412 84.1199 45.1883C84.1199 44.6355 84.5672 44.1875 85.1191 44.1875C85.4427 44.1875 85.7282 44.34 85.909 44.5783C86.0423 44.7403 86.1184 44.95 86.1184 45.1883Z" fill="#78ACEA"/>
<path d="M101.269 36.3999C98.7185 36.3999 96.6438 38.4778 96.6438 41.0323H97.5289C97.5289 38.9639 99.2038 37.2864 101.269 37.2864C103.334 37.2864 105.009 38.9639 105.009 41.0323C105.009 41.4422 104.943 41.8425 104.819 42.2143C104.448 43.3104 103.591 44.1873 102.497 44.5686C102.173 44.683 101.84 44.7497 101.488 44.7688V45.6552C101.897 45.6362 102.297 45.5694 102.668 45.4455C104.172 44.9689 105.342 43.7489 105.742 42.2143C105.837 41.833 105.894 41.4422 105.894 41.0323C105.894 38.4778 103.82 36.3999 101.269 36.3999Z" fill="#78ACEA"/>
<path d="M102.697 45.1883C102.697 45.2837 102.687 45.3694 102.659 45.4552C102.545 45.8841 102.154 46.1892 101.698 46.1892C101.146 46.1892 100.698 45.7412 100.698 45.1883C100.698 44.6355 101.146 44.1875 101.698 44.1875C102.021 44.1875 102.307 44.34 102.487 44.5783C102.621 44.7403 102.697 44.95 102.697 45.1883Z" fill="#78ACEA"/>
<path d="M117.857 36.3999C115.306 36.3999 113.232 38.4778 113.232 41.0323H114.117C114.117 38.9639 115.792 37.2864 117.857 37.2864C119.922 37.2864 121.597 38.9639 121.597 41.0323C121.597 41.4422 121.53 41.8425 121.407 42.2143C121.036 43.3104 120.179 44.1873 119.085 44.5686C118.761 44.683 118.428 44.7497 118.076 44.7688V45.6552C118.485 45.6362 118.885 45.5694 119.256 45.4455C120.76 44.9689 121.93 43.7489 122.33 42.2143C122.425 41.833 122.482 41.4422 122.482 41.0323C122.482 38.4778 120.407 36.3999 117.857 36.3999Z" fill="#78ACEA"/>
<path d="M119.285 45.1883C119.285 45.2837 119.275 45.3694 119.247 45.4552C119.132 45.8841 118.742 46.1892 118.285 46.1892C117.733 46.1892 117.286 45.7412 117.286 45.1883C117.286 44.6355 117.733 44.1875 118.285 44.1875C118.609 44.1875 118.894 44.34 119.075 44.5783C119.209 44.7403 119.285 44.95 119.285 45.1883Z" fill="#78ACEA"/>
<path d="M134.435 36.3999C131.885 36.3999 129.81 38.4778 129.81 41.0323H130.695C130.695 38.9639 132.37 37.2864 134.435 37.2864C136.5 37.2864 138.175 38.9639 138.175 41.0323C138.175 41.4422 138.109 41.8425 137.985 42.2143C137.614 43.3104 136.757 44.1873 135.663 44.5686C135.339 44.683 135.006 44.7497 134.654 44.7688V45.6552C135.063 45.6362 135.463 45.5694 135.834 45.4455C137.338 44.9689 138.508 43.7489 138.908 42.2143C139.003 41.833 139.06 41.4422 139.06 41.0323C139.06 38.4778 136.986 36.3999 134.435 36.3999Z" fill="#78ACEA"/>
<path d="M135.863 45.1883C135.863 45.2837 135.854 45.3694 135.825 45.4552C135.711 45.8841 135.321 46.1892 134.864 46.1892C134.312 46.1892 133.865 45.7412 133.865 45.1883C133.865 44.6355 134.312 44.1875 134.864 44.1875C135.187 44.1875 135.473 44.34 135.654 44.5783C135.787 44.7403 135.863 44.95 135.863 45.1883Z" fill="#78ACEA"/>
<path d="M151.023 36.3999C148.473 36.3999 146.398 38.4778 146.398 41.0323H147.283C147.283 38.9639 148.958 37.2864 151.023 37.2864C153.088 37.2864 154.763 38.9639 154.763 41.0323C154.763 41.4422 154.697 41.8425 154.573 42.2143C154.202 43.3104 153.345 44.1873 152.251 44.5686C151.937 44.683 151.594 44.7497 151.242 44.7688V45.6552C151.651 45.6362 152.051 45.5694 152.422 45.4455C153.926 44.9689 155.096 43.7489 155.496 42.2143C155.601 41.833 155.648 41.4422 155.648 41.0323C155.648 38.4778 153.574 36.3999 151.023 36.3999Z" fill="#78ACEA"/>
<path d="M152.451 45.1883C152.451 45.2837 152.441 45.3694 152.413 45.4552C152.299 45.8841 151.908 46.1892 151.452 46.1892C150.9 46.1892 150.452 45.7412 150.452 45.1883C150.452 44.6355 150.9 44.1875 151.452 44.1875C151.775 44.1875 152.061 44.34 152.242 44.5783C152.375 44.7403 152.451 44.95 152.451 45.1883Z" fill="#78ACEA"/>
<path d="M167.602 36.3999C165.051 36.3999 162.977 38.4778 162.977 41.0323H163.862C163.862 38.9639 165.537 37.2864 167.602 37.2864C169.667 37.2864 171.342 38.9639 171.342 41.0323C171.342 41.4422 171.275 41.8425 171.152 42.2143C170.78 43.3104 169.924 44.1873 168.829 44.5686C168.515 44.683 168.173 44.7497 167.821 44.7688V45.6552C168.23 45.6362 168.63 45.5694 169.001 45.4455C170.504 44.9689 171.675 43.7489 172.075 42.2143C172.17 41.833 172.227 41.4422 172.227 41.0323C172.227 38.4778 170.152 36.3999 167.602 36.3999Z" fill="#78ACEA"/>
<path d="M169.029 45.1883C169.029 45.2837 169.02 45.3694 168.991 45.4552C168.877 45.8841 168.487 46.1892 168.03 46.1892C167.478 46.1892 167.031 45.7412 167.031 45.1883C167.031 44.6355 167.478 44.1875 168.03 44.1875C168.354 44.1875 168.639 44.34 168.82 44.5783C168.953 44.7403 169.029 44.95 169.029 45.1883Z" fill="#78ACEA"/>
<path d="M184.19 36.3999C181.639 36.3999 179.564 38.4778 179.564 41.0323H180.45C180.45 38.9639 182.124 37.2864 184.19 37.2864C186.255 37.2864 187.93 38.9639 187.93 41.0323C187.93 41.4422 187.863 41.8425 187.739 42.2143C187.368 43.3104 186.512 44.1873 185.417 44.5686C185.094 44.683 184.761 44.7497 184.409 44.7688V45.6552C184.818 45.6362 185.217 45.5694 185.589 45.4455C187.092 44.9689 188.263 43.7489 188.663 42.2143C188.758 41.833 188.815 41.4422 188.815 41.0323C188.815 38.4778 186.74 36.3999 184.19 36.3999Z" fill="#78ACEA"/>
<path d="M185.617 45.1883C185.617 45.2837 185.608 45.3694 185.579 45.4552C185.465 45.8841 185.075 46.1892 184.618 46.1892C184.066 46.1892 183.619 45.7412 183.619 45.1883C183.619 44.6355 184.066 44.1875 184.618 44.1875C184.941 44.1875 185.227 44.34 185.408 44.5783C185.541 44.7403 185.617 44.95 185.617 45.1883Z" fill="#78ACEA"/>
<path d="M143.886 86.9465H138.49C137.861 86.9465 137.262 86.4318 137.138 85.8122L136.101 80.4077C135.977 79.7786 136.396 79.2734 137.014 79.2734H142.41C143.039 79.2734 143.638 79.7882 143.762 80.4077L144.799 85.8122C144.923 86.4413 144.514 86.9465 143.886 86.9465Z" fill="#AFCDFB"/>
<path d="M157.495 86.9465H152.099C151.471 86.9465 150.871 86.4318 150.747 85.8122L149.71 80.4077C149.586 79.7786 150.005 79.2734 150.624 79.2734H156.02C156.648 79.2734 157.247 79.7882 157.371 80.4077L158.408 85.8122C158.532 86.4413 158.123 86.9465 157.495 86.9465Z" fill="#AFCDFB"/>
<path d="M171.104 86.9465H165.708C165.08 86.9465 164.48 86.4318 164.356 85.8122L163.319 80.4077C163.195 79.7786 163.614 79.2734 164.233 79.2734H169.629C170.257 79.2734 170.856 79.7882 170.98 80.4077L172.017 85.8122C172.141 86.4413 171.732 86.9465 171.104 86.9465Z" fill="#78ACEA"/>
<path d="M103.058 86.9465H97.6621C97.034 86.9465 96.4345 86.4318 96.3108 85.8122L95.2734 80.4077C95.1497 79.7786 95.5684 79.2734 96.187 79.2734H101.583C102.211 79.2734 102.811 79.7882 102.934 80.4077L103.972 85.8122C104.096 86.4413 103.686 86.9465 103.058 86.9465Z" fill="#AFCDFB"/>
<path d="M97.1484 70.733H94.8263C94.5598 70.733 94.2933 70.5138 94.2457 70.2469L93.7985 67.9212C93.7509 67.6543 93.9222 67.4351 94.1886 67.4351H96.5108C96.7772 67.4351 97.0437 67.6543 97.0913 67.9212L97.5386 70.2469C97.5957 70.5138 97.4149 70.733 97.1484 70.733Z" fill="#FD1C15"/>
<path d="M116.667 86.9465H111.271C110.643 86.9465 110.044 86.4318 109.92 85.8122L108.883 80.4077C108.759 79.7786 109.178 79.2734 109.796 79.2734H115.192C115.82 79.2734 116.42 79.7882 116.544 80.4077L117.581 85.8122C117.705 86.4413 117.295 86.9465 116.667 86.9465Z" fill="#AFCDFB"/>
<path d="M130.276 86.9465H124.88C124.252 86.9465 123.653 86.4318 123.529 85.8122L122.492 80.4077C122.368 79.7786 122.787 79.2734 123.405 79.2734H128.801C129.429 79.2734 130.029 79.7882 130.153 80.4077L131.19 85.8122C131.314 86.4413 130.905 86.9465 130.276 86.9465Z" fill="#AFCDFB"/>
<path d="M184.713 86.9465H179.317C178.689 86.9465 178.089 86.4318 177.966 85.8122L176.928 80.4077C176.804 79.7786 177.223 79.2734 177.842 79.2734H183.238C183.866 79.2734 184.466 79.7882 184.589 80.4077L185.627 85.8122C185.75 86.4413 185.341 86.9465 184.713 86.9465Z" fill="#78ACEA"/>
<path d="M141.63 75.2224H136.234C135.606 75.2224 135.006 74.7077 134.883 74.0881L133.845 68.6836C133.722 68.0545 134.14 67.5493 134.759 67.5493H140.155C140.783 67.5493 141.383 68.064 141.507 68.6836L142.544 74.0881C142.668 74.7077 142.249 75.2224 141.63 75.2224Z" fill="#AFCDFB"/>
<path d="M155.239 75.2224H149.843C149.215 75.2224 148.615 74.7077 148.492 74.0881L147.454 68.6836C147.331 68.0545 147.749 67.5493 148.368 67.5493H153.764C154.392 67.5493 154.992 68.064 155.115 68.6836L156.153 74.0881C156.276 74.7077 155.858 75.2224 155.239 75.2224Z" fill="#AFCDFB"/>
<path d="M168.848 75.2224H163.452C162.824 75.2224 162.225 74.7077 162.101 74.0881L161.063 68.6836C160.94 68.0545 161.358 67.5493 161.977 67.5493H167.373C168.001 67.5493 168.601 68.064 168.725 68.6836L169.762 74.0881C169.886 74.7077 169.467 75.2224 168.848 75.2224Z" fill="#78ACEA"/>
<path d="M182.458 75.2224H177.062C176.433 75.2224 175.834 74.7077 175.71 74.0881L174.673 68.6836C174.549 68.0545 174.968 67.5493 175.586 67.5493H180.983C181.611 67.5493 182.21 68.064 182.334 68.6836L183.371 74.0881C183.495 74.7077 183.076 75.2224 182.458 75.2224Z" fill="#78ACEA"/>
<path d="M146.284 99.3855H140.888C140.26 99.3855 139.66 98.8707 139.536 98.2512L138.499 92.8467C138.375 92.2176 138.794 91.7124 139.413 91.7124H144.809C145.437 91.7124 146.036 92.2271 146.16 92.8467L147.197 98.2512C147.321 98.8707 146.902 99.3855 146.284 99.3855Z" fill="#AFCDFB"/>
<path d="M159.893 99.3855H154.497C153.869 99.3855 153.269 98.8707 153.145 98.2512L152.108 92.8467C151.984 92.2176 152.403 91.7124 153.022 91.7124H158.418C159.046 91.7124 159.645 92.2271 159.769 92.8467L160.807 98.2512C160.93 98.8707 160.512 99.3855 159.893 99.3855Z" fill="#AFCDFB"/>
<path d="M173.502 99.3855H168.106C167.478 99.3855 166.878 98.8707 166.755 98.2512L165.717 92.8467C165.594 92.2176 166.012 91.7124 166.631 91.7124H172.027C172.655 91.7124 173.255 92.2271 173.378 92.8467L174.416 98.2512C174.539 98.8707 174.121 99.3855 173.502 99.3855Z" fill="#78ACEA"/>
<path d="M105.456 99.3855H100.06C99.4322 99.3855 98.8327 98.8707 98.7089 98.2512L97.6716 92.8467C97.5479 92.2176 97.9666 91.7124 98.5852 91.7124H103.981C104.609 91.7124 105.209 92.2271 105.333 92.8467L106.37 98.2512C106.494 98.8707 106.075 99.3855 105.456 99.3855Z" fill="#AFCDFB"/>
<path d="M119.066 99.3855H113.669C113.041 99.3855 112.442 98.8707 112.318 98.2512L111.281 92.8467C111.157 92.2176 111.576 91.7124 112.194 91.7124H117.59C118.219 91.7124 118.818 92.2271 118.942 92.8467L119.979 98.2512C120.103 98.8707 119.684 99.3855 119.066 99.3855Z" fill="#AFCDFB"/>
<path d="M132.675 99.3855H127.279C126.65 99.3855 126.051 98.8707 125.927 98.2512L124.89 92.8467C124.766 92.2176 125.185 91.7124 125.803 91.7124H131.2C131.828 91.7124 132.427 92.2271 132.551 92.8467L133.588 98.2512C133.712 98.8707 133.293 99.3855 132.675 99.3855Z" fill="#AFCDFB"/>
<path d="M187.111 99.3855H181.715C181.087 99.3855 180.487 98.8707 180.364 98.2512L179.326 92.8467C179.203 92.2176 179.621 91.7124 180.24 91.7124H185.636C186.264 91.7124 186.864 92.2271 186.987 92.8467L188.025 98.2512C188.149 98.8707 187.73 99.3855 187.111 99.3855Z" fill="#78ACEA"/>
<path d="M148.682 111.815H143.286C142.658 111.815 142.058 111.3 141.935 110.681L140.897 105.276C140.773 104.647 141.192 104.142 141.811 104.142H147.207C147.835 104.142 148.435 104.657 148.558 105.276L149.596 110.681C149.71 111.31 149.301 111.815 148.682 111.815Z" fill="#AFCDFB"/>
<path d="M162.291 111.815H156.895C156.267 111.815 155.667 111.3 155.544 110.681L154.506 105.276C154.383 104.647 154.801 104.142 155.42 104.142H160.816C161.444 104.142 162.044 104.657 162.167 105.276L163.205 110.681C163.319 111.31 162.91 111.815 162.291 111.815Z" fill="#AFCDFB"/>
<path d="M175.901 111.815H170.505C169.877 111.815 169.277 111.3 169.153 110.681L168.116 105.276C167.992 104.647 168.411 104.142 169.03 104.142H174.426C175.054 104.142 175.653 104.657 175.777 105.276L176.814 110.681C176.929 111.31 176.519 111.815 175.901 111.815Z" fill="#78ACEA"/>
<path d="M107.855 111.815H102.459C101.83 111.815 101.231 111.3 101.107 110.681L100.07 105.276C99.9461 104.647 100.365 104.142 100.983 104.142H106.379C107.008 104.142 107.607 104.657 107.731 105.276L108.768 110.681C108.882 111.31 108.473 111.815 107.855 111.815Z" fill="#AFCDFB"/>
<path d="M121.464 111.815H116.068C115.44 111.815 114.84 111.3 114.716 110.681L113.679 105.276C113.555 104.647 113.974 104.142 114.593 104.142H119.989C120.617 104.142 121.216 104.657 121.34 105.276L122.377 110.681C122.492 111.31 122.082 111.815 121.464 111.815Z" fill="#FD1C15"/>
<path d="M135.073 111.815H129.677C129.049 111.815 128.449 111.3 128.326 110.681L127.288 105.276C127.165 104.647 127.583 104.142 128.202 104.142H133.598C134.226 104.142 134.826 104.657 134.949 105.276L135.987 110.681C136.101 111.31 135.692 111.815 135.073 111.815Z" fill="#AFCDFB"/>
<path d="M189.509 111.815H184.113C183.485 111.815 182.886 111.3 182.762 110.681L181.725 105.276C181.601 104.647 182.02 104.142 182.638 104.142H188.034C188.662 104.142 189.262 104.657 189.386 105.276L190.423 110.681C190.537 111.31 190.128 111.815 189.509 111.815Z" fill="#78ACEA"/>
<path d="M150.938 123.549H145.542C144.914 123.549 144.314 123.034 144.19 122.414L143.153 117.01C143.029 116.381 143.448 115.875 144.067 115.875H149.463C150.091 115.875 150.69 116.39 150.814 117.01L151.851 122.414C151.975 123.043 151.566 123.549 150.938 123.549Z" fill="#AFCDFB"/>
<path d="M164.547 123.549H159.151C158.523 123.549 157.923 123.034 157.8 122.414L156.762 117.01C156.638 116.381 157.057 115.875 157.676 115.875H163.072C163.7 115.875 164.3 116.39 164.423 117.01L165.461 122.414C165.584 123.043 165.175 123.549 164.547 123.549Z" fill="#AFCDFB"/>
<path d="M178.156 123.549H172.76C172.132 123.549 171.532 123.034 171.409 122.414L170.371 117.01C170.248 116.381 170.666 115.875 171.285 115.875H176.681C177.309 115.875 177.909 116.39 178.032 117.01L179.07 122.414C179.193 123.043 178.784 123.549 178.156 123.549Z" fill="#78ACEA"/>
<path d="M110.11 123.549H104.714C104.086 123.549 103.487 123.034 103.363 122.414L102.326 117.01C102.202 116.381 102.621 115.875 103.239 115.875H108.635C109.263 115.875 109.863 116.39 109.987 117.01L111.024 122.414C111.148 123.043 110.729 123.549 110.11 123.549Z" fill="#AFCDFB"/>
<path d="M123.72 123.549H118.324C117.695 123.549 117.096 123.034 116.972 122.414L115.935 117.01C115.811 116.381 116.23 115.875 116.848 115.875H122.244C122.873 115.875 123.472 116.39 123.596 117.01L124.633 122.414C124.757 123.043 124.338 123.549 123.72 123.549Z" fill="#AFCDFB"/>
<path d="M137.329 123.549H131.933C131.305 123.549 130.705 123.034 130.581 122.414L129.544 117.01C129.42 116.381 129.839 115.875 130.458 115.875H135.854C136.482 115.875 137.081 116.39 137.205 117.01L138.242 122.414C138.366 123.043 137.947 123.549 137.329 123.549Z" fill="#AFCDFB"/>
<path d="M113.498 68.5977H99.2134C99.0041 68.5977 98.8328 68.4262 98.8328 68.2165C98.8328 68.0068 99.0041 67.8352 99.2134 67.8352H113.498C113.708 67.8352 113.879 68.0068 113.879 68.2165C113.879 68.4262 113.708 68.5977 113.498 68.5977Z" fill="#AFCDFB"/>
<path d="M113.926 70.3326H99.6417C99.4323 70.3326 99.261 70.161 99.261 69.9513C99.261 69.7416 99.4323 69.5701 99.6417 69.5701H113.926C114.136 69.5701 114.307 69.7416 114.307 69.9513C114.317 70.161 114.145 70.3326 113.926 70.3326Z" fill="#AFCDFB"/>
<path d="M98.176 55.692H93.2653C92.8656 55.692 92.5325 55.3584 92.5325 54.9581C92.5325 54.5577 92.8656 54.2241 93.2653 54.2241H98.1665C98.5662 54.2241 98.8993 54.5577 98.8993 54.9581C98.8993 55.3679 98.5757 55.692 98.176 55.692Z" fill="white"/>
<path d="M111.623 55.692H106.722C106.322 55.692 105.989 55.3584 105.989 54.9581C105.989 54.5577 106.322 54.2241 106.722 54.2241H111.623C112.023 54.2241 112.356 54.5577 112.356 54.9581C112.356 55.3679 112.023 55.692 111.623 55.692Z" fill="white"/>
<path d="M125.08 55.692H120.179C119.779 55.692 119.446 55.3584 119.446 54.9581C119.446 54.5577 119.779 54.2241 120.179 54.2241H125.08C125.48 54.2241 125.813 54.5577 125.813 54.9581C125.813 55.3679 125.48 55.692 125.08 55.692Z" fill="white"/>
<path d="M138.537 55.692H133.636C133.236 55.692 132.903 55.3584 132.903 54.9581C132.903 54.5577 133.236 54.2241 133.636 54.2241H138.537C138.937 54.2241 139.27 54.5577 139.27 54.9581C139.261 55.3679 138.937 55.692 138.537 55.692Z" fill="white"/>
<path d="M151.985 55.692H147.084C146.684 55.692 146.351 55.3584 146.351 54.9581C146.351 54.5577 146.684 54.2241 147.084 54.2241H151.985C152.385 54.2241 152.718 54.5577 152.718 54.9581C152.718 55.3679 152.385 55.692 151.985 55.692Z" fill="white"/>
<path d="M165.441 55.692H160.54C160.14 55.692 159.807 55.3584 159.807 54.9581C159.807 54.5577 160.14 54.2241 160.54 54.2241H165.441C165.841 54.2241 166.174 54.5577 166.174 54.9581C166.174 55.3679 165.841 55.692 165.441 55.692Z" fill="white"/>
<path d="M178.898 55.692H173.997C173.598 55.692 173.264 55.3584 173.264 54.9581C173.264 54.5577 173.598 54.2241 173.997 54.2241H178.898C179.298 54.2241 179.631 54.5577 179.631 54.9581C179.622 55.3679 179.298 55.692 178.898 55.692Z" fill="white"/>
<path d="M147.883 75.3276C146.798 75.3276 146.008 74.9844 145.58 74.3172C144.752 73.0399 145.389 71.2385 147.474 68.9794C148.996 67.3304 150.766 66.0246 150.785 66.0055C150.852 65.9579 150.957 65.9674 151.004 66.0437C151.052 66.1104 151.042 66.2152 150.966 66.2629C150.9 66.3105 144.067 71.3814 145.846 74.1456C146.408 75.0226 147.616 75.0797 148.53 74.9749C150.224 74.7747 152.432 73.8692 154.43 72.5348C156.505 71.1527 157.971 69.599 158.437 68.2645C158.751 67.3876 158.656 66.7681 158.152 66.4249C157.504 65.9769 156.153 65.9769 154.535 66.4249C152.984 66.8539 151.433 67.6259 150.471 68.4361C150.405 68.4933 150.31 68.4838 150.253 68.4171C150.195 68.3503 150.205 68.255 150.272 68.1978C151.261 67.359 152.87 66.5584 154.449 66.1199C156.182 65.6433 157.59 65.6624 158.323 66.1676C158.761 66.4726 159.179 67.0921 158.723 68.3694C158.228 69.761 156.724 71.3719 154.592 72.7921C152.546 74.1552 150.291 75.0797 148.549 75.2894C148.33 75.3085 148.102 75.3276 147.883 75.3276Z" fill="#C65447"/>
<path d="M176.196 66.4249L175.644 65.3764C175.644 65.3764 175.92 63.4986 173.578 62.3167C173.578 62.3167 172.722 61.964 172.237 62.6694C171.789 63.3175 173.084 63.1936 173.017 64.2993C172.95 65.405 173.474 66.0531 174.197 66.4058L174.797 67.1016L176.196 66.4249Z" fill="#FFB27D"/>
<path d="M198.351 63.9084C198.351 63.9084 196.333 73.8023 185.256 77.0431C181.801 78.0535 173.94 66.644 173.94 66.644C173.94 66.644 174.216 65.5955 175.948 65.8338C175.948 65.8338 183.6 70.9047 184.561 71.4575C185.417 71.9436 191.032 65.1761 193.602 64.08C196.162 62.9838 198.351 63.9084 198.351 63.9084Z" fill="#233862"/>
<path d="M165.955 63.7259L166.398 66.1252L178.461 63.8879L178.017 61.4885L165.955 63.7259Z" fill="#C65447"/>
<path d="M163.376 65.4528L166.403 66.1295L165.955 63.7275L163.376 65.4528Z" fill="#FFB27D"/>
<path d="M179.564 62.0309L179.707 62.7935C179.793 63.2605 179.488 63.7085 179.022 63.7943L178.46 63.8991L178.013 61.4971L178.622 61.3828C179.06 61.297 179.479 61.5925 179.564 62.0309Z" fill="#FFB27D"/>
<path d="M211.579 126.122C211.579 126.122 212.95 127.38 212.683 128.267C212.417 129.163 211.17 129.754 211.008 130.85C210.837 131.937 210.171 132.537 209.571 132.537C208.972 132.537 206.697 132.537 206.697 132.537C206.697 132.537 206.25 131.765 207.325 131.536C208.401 131.307 208.8 130.021 208.734 128.829C208.667 127.638 208.838 126.055 208.838 126.055L211.122 125.531L211.579 126.122Z" fill="#233862"/>
<path d="M194.715 129.372C194.715 129.372 194.963 132.232 194.363 132.527L186.645 132.508C186.645 132.508 186.645 131.612 187.882 131.422C189.119 131.222 191.299 130.497 191.67 128.877C192.031 127.256 194.715 129.372 194.715 129.372Z" fill="#233862"/>
<path d="M188.196 88.9863C188.196 88.9863 188.606 94 189.081 100.024C189.729 108.212 190.518 118.258 190.595 120.165C190.728 123.472 191.261 128.762 191.261 128.762C191.261 128.762 192.536 130.02 195.087 129.487C195.087 129.487 197.361 121.938 198.008 113.95C198.018 113.817 198.027 113.683 198.037 113.559C198.636 105.429 199.578 88.3 199.578 88.3L188.196 88.9863Z" fill="#FD1C15"/>
<path d="M188.196 88.9863C188.196 88.9863 188.606 94 189.081 100.024L198.008 113.95C198.018 113.817 198.027 113.683 198.037 113.559C198.636 105.429 199.578 88.3 199.578 88.3L188.196 88.9863Z" fill="#DB1414"/>
<path d="M190.062 89.5775C190.062 89.5775 197.399 107.726 202.234 116.257C207.059 124.788 208.572 127.171 208.572 127.171C208.572 127.171 211.341 126.084 211.589 125.331C211.589 125.331 209.742 108.86 206.507 104.847C204.679 102.579 202.538 95.7731 202.433 93.3902C202.329 91.0073 201.777 86.2986 201.777 86.2986L190.062 89.5775Z" fill="#FD1C15"/>
<path d="M199.721 61.6115C199.721 61.6115 194.753 64.0135 191.889 63.1175C191.889 63.1175 192.593 62.231 193.83 61.5638C193.735 60.9919 193.649 60.4867 193.611 60.0673C193.488 59.0856 193.488 58.5327 193.488 58.5327L195.4 57.0267L197.218 55.5779C197.075 59.6384 199.721 61.6115 199.721 61.6115Z" fill="#FFB27D"/>
<path d="M187.882 89.3962C187.968 89.4725 188.072 89.5106 188.177 89.5106C189.252 89.4916 192.393 90.0825 195.048 89.8156C197.294 89.5964 199.274 88.9482 201.406 88.0141C201.691 87.8807 202.338 87.5375 202.329 87.2325C202.319 86.8894 202.281 86.3937 202.243 85.7646C202.157 84.5255 202.024 82.7621 201.986 80.6747C201.958 79.1306 201.977 77.3958 202.081 75.5657C202.091 75.4418 202.091 75.3179 202.1 75.1939C202.129 74.5267 202.148 73.85 202.148 73.1827C202.157 71.0572 202.005 69.0269 201.701 67.2063C201.158 64.0513 200.149 61.5921 198.646 60.496C198.446 60.3435 197.209 60.944 196.067 61.4968C195.02 62.0115 193.973 62.0592 192.983 61.8686L191.993 62.736C190.794 63.8321 189.471 65.3381 188.891 67.6257C188.405 69.5607 188.12 73.0588 187.968 76.6904C187.892 78.3394 187.834 79.9884 187.815 81.5707V81.6279C187.806 81.7899 187.806 81.952 187.806 82.114C187.749 86.1459 187.806 89.3486 187.882 89.3962Z" fill="#2B478B"/>
<path d="M197.247 57.1315C197.247 57.1315 195.99 59.4191 193.602 60.0672C193.478 59.0855 193.478 58.5326 193.478 58.5326L195.391 57.0266L197.247 57.1315Z" fill="#ED985F"/>
<path d="M192.612 58.466C192.612 58.466 197.352 59.2381 197.799 56.3213C198.246 53.4046 199.15 51.5364 196.152 50.9168C193.145 50.2973 192.384 51.3267 191.994 52.2608C191.603 53.2045 191.384 58.1896 192.612 58.466Z" fill="#FFB27D"/>
<path d="M199.512 50.5736C199.559 50.5259 199.655 50.4878 199.873 50.4687C199.873 50.4687 199.693 50.3544 199.464 50.3544C199.417 50.0493 199.255 49.506 198.722 49.3726C198.722 49.3726 199.007 49.5251 199.045 49.8492C198.436 49.2201 197.123 48.7626 193.488 49.0485C188.701 49.4298 190.28 52.499 190.899 52.8612C191.518 53.2234 193.078 52.2226 194.23 52.3179C195.381 52.4132 195.6 54.0813 196 54.31C196.39 54.5388 196.238 54.1385 196.771 53.8906C197.304 53.6428 197.351 54.5293 197.199 55.1012C197.047 55.6731 197.77 56.4261 197.77 56.4261C197.77 56.4261 197.77 56.4261 198.503 55.6349C199.236 54.8438 199.931 51.4791 199.597 50.7642C199.578 50.707 199.55 50.6403 199.512 50.5736Z" fill="#2C3A64"/>
<path d="M175.624 65.3192C175.624 65.3192 175.786 64.671 175.339 64.3851C174.892 64.0991 174.482 63.308 174.292 63.4128C173.902 63.6321 174.501 64.3183 174.397 65.1762C174.359 65.4812 175.063 66.2723 175.624 65.3192Z" fill="#FFB27D"/>
<path d="M201.996 80.6748C201.967 79.1307 201.986 77.3959 202.091 75.5658C202.101 75.4419 202.1 75.318 202.11 75.1941C201.663 72.9541 200.978 70.9715 199.978 70.9143C199.978 70.9143 196.99 75.623 201.996 80.6748Z" fill="#233862"/>
<path d="M205.945 88.7864C205.945 88.7864 205.698 91.2075 205.422 91.6745C205.146 92.1321 203.985 93.6 203.49 93.8859C202.995 94.1719 203.794 91.951 203.69 91.522C203.585 91.0931 203.281 92.3132 203.062 92.3418C202.843 92.3704 202.9 91.2742 202.89 90.8739C202.881 90.4735 203.956 89.4918 204.327 88.6339C204.718 87.7856 205.945 88.7864 205.945 88.7864Z" fill="#FFB27D"/>
<path d="M198.655 60.4771C198.655 60.4771 201.653 61.8973 203.09 64.0896C205.317 67.4829 207.906 79.836 207.953 80.9894C208.001 82.1332 206.069 90.2161 206.069 90.2161C206.069 90.2161 204.108 90.0826 203.604 89.0913C203.604 89.0913 203.994 80.7892 203.747 80.2554C203.499 79.7216 195.572 69.1223 196.457 66.8538C197.342 64.5948 198.655 60.4771 198.655 60.4771Z" fill="#2B478B"/>
<path d="M164.918 64.4136L165.08 65.8338L163.376 65.4525L164.918 64.4136Z" fill="#C65447"/>
<path d="M229.804 132.499H221.163C220.696 132.108 221.486 131.212 222.305 131.155C222.657 131.126 223.114 131.203 223.628 131.307C223.742 129.725 224.427 122.615 226.987 122.9C229.861 123.225 226.987 126.036 226.178 127.695C225.579 128.925 224.941 130.697 224.646 131.527C224.884 131.574 225.122 131.632 225.369 131.67C225.75 130.497 227.168 126.551 228.976 126.78C231.098 127.047 230.242 128.629 228.738 129.573C227.634 130.259 226.283 131.241 225.636 131.717C226.178 131.803 226.749 131.87 227.33 131.851C228.805 131.822 229.528 132.261 229.804 132.499Z" fill="#82B378"/>
<path d="M32.5477 132.08C32.0909 131.355 30.711 129.487 28.8742 129.735C26.8757 130.002 31.0821 131.327 32.3764 132.08C32.0909 132.08 31.8435 132.061 31.6627 131.994C30.7966 131.689 29.3215 132.28 28.8552 132.48H37.0587C37.0016 132.28 36.8589 131.965 36.4687 131.727C36.3355 131.641 36.0595 131.632 35.7169 131.66C36.2022 131.088 36.5448 129.249 35.1839 129.716C34.1942 130.059 34.1942 131.184 34.2893 131.851C34.08 131.88 33.8611 131.918 33.6517 131.946C33.2425 129.859 31.7959 123.749 28.8742 123.587C25.905 123.425 31.3867 129.926 33.2139 132.003C32.9855 132.051 32.7571 132.07 32.5477 132.08Z" fill="#82B378"/>
<path d="M257.003 133.09H0.295023C0.133236 133.09 0 132.956 0 132.794V132.699C0 132.537 0.133236 132.404 0.295023 132.404H257.013C257.175 132.404 257.308 132.537 257.308 132.699V132.794C257.298 132.956 257.165 133.09 257.003 133.09Z" fill="#2E3552"/>
</svg>
